<svg width="212" height="80" viewBox="0 0 212 80" fill="none" xmlns="http://www.w3.org/2000/svg">
<g opacity="0.8">
<path d="M93.1117 30.6667V48.4454H88.8254V30.6667H93.1117ZM115.965 30.6667V33.4601H108.313V48.4454H104.027V33.4601H97.6273L96.3752 30.6667H115.965ZM137.494 30.6667V33.4601H129.842V48.4454H125.557V33.4601H119.156L117.905 30.6667H137.494ZM156.97 30.6667V33.4347H144.405V38.0574H155.552V40.7747H144.405V45.6761H157.431V48.4454H140.119V30.6667H156.97ZM173.851 30.6667L184.272 48.4454H179.788L177.478 44.3307H165.936L163.661 48.4454H159.242L169.63 30.6667H173.851ZM190.27 30.6667L199.439 42.4521L208.442 30.6667H211.972L212 48.4454H207.946L207.912 36.6601L200.329 46.4134H198.417L190.832 36.8134V48.4454H186.742V30.6667H190.27ZM75.6668 30.6667C78.3923 30.6667 80.4924 31.0774 81.9658 31.8987C83.4379 32.7201 84.1746 33.8494 84.1746 35.2894C84.186 36.1365 83.9066 36.9616 83.3836 37.6254C82.8562 38.3027 82.1301 38.8281 81.2066 39.1987C82.4813 39.5227 83.4936 40.0601 84.2409 40.8121C84.9882 41.5667 85.3631 42.5014 85.3631 43.6187C85.3631 45.1601 84.5933 46.3494 83.0537 47.1881C81.5153 48.0254 79.2721 48.4454 76.3266 48.4454H64.8495V38.1587H75.2044C76.7003 38.1587 77.8491 37.9521 78.652 37.5374C79.4536 37.1214 79.8551 36.5161 79.8551 35.7201C79.8551 34.9067 79.4536 34.2934 78.652 33.8801C77.8491 33.4641 76.7003 33.2574 75.2044 33.2574H64.8495L63.6 30.6667H75.6668ZM76.063 40.7241H69.1372V45.8547H76.063C79.3821 45.8547 81.0423 44.9987 81.0423 43.2894C81.0423 41.5787 79.3821 40.7241 76.063 40.7241ZM171.708 33.9681L167.387 41.7401H176.061L171.708 33.9681Z" fill="white"/>
<path d="M22.5144 62.256C22.7425 62.256 22.9612 62.3472 23.1224 62.5095C23.2837 62.6717 23.3743 62.8918 23.3743 63.1213C23.3743 63.3508 23.2837 63.5709 23.1224 63.7332C22.9612 63.8955 22.7425 63.9867 22.5144 63.9867C22.2863 63.9867 22.0676 63.8955 21.9063 63.7332C21.7451 63.5709 21.6545 63.3508 21.6545 63.1213C21.6545 62.8918 21.7451 62.6717 21.9063 62.5095C22.0676 62.3472 22.2863 62.256 22.5144 62.256ZM26.9359 59.0333C27.3344 59.0333 27.7166 59.1926 27.9984 59.4762C28.2802 59.7598 28.4385 60.1443 28.4385 60.5453C28.4385 60.9464 28.2802 61.3309 27.9984 61.6145C27.7166 61.898 27.3344 62.0573 26.9359 62.0573C26.1078 62.0573 25.4387 61.38 25.4387 60.5453C25.4387 59.7107 26.1091 59.0333 26.9359 59.0333ZM18.0955 59.6813C18.211 59.677 18.3262 59.6961 18.4342 59.7376C18.5422 59.7791 18.6407 59.8421 18.7239 59.9228C18.8071 60.0036 18.8733 60.1004 18.9184 60.2075C18.9635 60.3146 18.9867 60.4297 18.9865 60.5461C18.9863 60.6624 18.9628 60.7775 18.9173 60.8844C18.8719 60.9914 18.8055 61.088 18.722 61.1685C18.6386 61.249 18.5398 61.3117 18.4317 61.3528C18.3236 61.394 18.2084 61.4128 18.0929 61.408C17.8712 61.3989 17.6616 61.3038 17.508 61.1426C17.3545 60.9814 17.2689 60.7667 17.2693 60.5434C17.2696 60.3201 17.3559 60.1056 17.5099 59.9449C17.6639 59.7842 17.8738 59.6898 18.0955 59.6813ZM31.3574 57.1053C31.5855 57.1053 31.8042 57.1965 31.9655 57.3588C32.1268 57.5211 32.2174 57.7412 32.2174 57.9707C32.2174 58.2002 32.1268 58.4203 31.9655 58.5826C31.8042 58.7448 31.5855 58.836 31.3574 58.836C31.1294 58.836 30.9106 58.7448 30.7494 58.5826C30.5881 58.4203 30.4975 58.2002 30.4975 57.9707C30.4975 57.7412 30.5881 57.5211 30.7494 57.3588C30.9106 57.1965 31.1294 57.1053 31.3574 57.1053ZM13.674 57.1053C14.147 57.1053 14.5313 57.492 14.5313 57.9707C14.531 58.1416 14.4804 58.3085 14.3858 58.4505C14.2913 58.5924 14.157 58.7029 14 58.7681C13.843 58.8332 13.6704 58.8501 13.5039 58.8165C13.3374 58.7829 13.1845 58.7004 13.0646 58.5793C12.9447 58.4583 12.8632 58.3042 12.8303 58.1366C12.7974 57.9689 12.8147 57.7952 12.8799 57.6375C12.9452 57.4797 13.0554 57.3449 13.1968 57.2502C13.3381 57.1555 13.5042 57.1051 13.674 57.1053ZM22.5144 57.1053C22.7425 57.1053 22.9612 57.1965 23.1224 57.3588C23.2837 57.5211 23.3743 57.7412 23.3743 57.9707C23.3743 58.2002 23.2837 58.4203 23.1224 58.5826C22.9612 58.7448 22.7425 58.836 22.5144 58.836C22.2863 58.836 22.0676 58.7448 21.9063 58.5826C21.7451 58.4203 21.6545 58.2002 21.6545 57.9707C21.6545 57.7412 21.7451 57.5211 21.9063 57.3588C22.0676 57.1965 22.2863 57.1053 22.5144 57.1053ZM35.7776 53.884C36.6058 53.884 37.2775 54.56 37.2775 55.396C37.2835 55.5979 37.2491 55.799 37.1765 55.9872C37.1038 56.1755 36.9943 56.3472 36.8545 56.4921C36.7147 56.6371 36.5474 56.7523 36.3626 56.831C36.1777 56.9097 35.979 56.9502 35.7783 56.9502C35.5776 56.9502 35.3789 56.9097 35.194 56.831C35.0092 56.7523 34.8419 56.6371 34.7021 56.4921C34.5623 56.3472 34.4528 56.1755 34.3801 55.9872C34.3075 55.799 34.2731 55.5979 34.2791 55.396C34.2791 54.56 34.9495 53.884 35.7776 53.884ZM18.0955 53.884C18.9236 53.884 19.5928 54.56 19.5928 55.396C19.6013 55.5994 19.5688 55.8024 19.4973 55.9928C19.4258 56.1832 19.3168 56.3571 19.1768 56.504C19.0368 56.651 18.8688 56.7679 18.6827 56.8477C18.4967 56.9276 18.2965 56.9688 18.0942 56.9688C17.8919 56.9688 17.6917 56.9276 17.5057 56.8477C17.3196 56.7679 17.1515 56.651 17.0115 56.504C16.8715 56.3571 16.7625 56.1832 16.6911 55.9928C16.6196 55.8024 16.5871 55.5994 16.5956 55.396C16.5956 54.56 17.2674 53.884 18.0955 53.884ZM26.9359 54.5307C27.1635 54.5307 27.3817 54.6216 27.5426 54.7835C27.7035 54.9454 27.7939 55.165 27.7939 55.394C27.7939 55.623 27.7035 55.8426 27.5426 56.0045C27.3817 56.1664 27.1635 56.2573 26.9359 56.2573C26.7084 56.2573 26.4902 56.1664 26.3293 56.0045C26.1684 55.8426 26.078 55.623 26.078 55.394C26.078 55.165 26.1684 54.9454 26.3293 54.7835C26.4902 54.6216 26.7084 54.5307 26.9359 54.5307ZM9.25246 54.5307C9.72681 54.5307 10.1097 54.9173 10.1097 55.396C10.1092 55.5665 10.0585 55.733 9.96398 55.8746C9.86946 56.0161 9.73539 56.1262 9.5787 56.1911C9.422 56.256 9.24972 56.2727 9.0836 56.2391C8.91748 56.2055 8.76497 56.1232 8.64535 56.0024C8.52572 55.8816 8.44434 55.7279 8.41147 55.5607C8.37861 55.3934 8.39574 55.2201 8.4607 55.0626C8.52566 54.9051 8.63554 54.7706 8.77646 54.6759C8.91738 54.5812 9.08302 54.5307 9.25246 54.5307ZM31.3588 51.956C31.5867 51.9562 31.8051 52.0475 31.9662 52.2097C32.1272 52.372 32.2175 52.592 32.2174 52.8213C32.2172 53.0507 32.1265 53.2705 31.9652 53.4326C31.804 53.5946 31.5853 53.6855 31.3574 53.6853C31.1294 53.6853 30.9106 53.5942 30.7494 53.4319C30.5881 53.2696 30.4975 53.0495 30.4975 52.82C30.4975 52.5905 30.5881 52.3704 30.7494 52.2081C30.9106 52.0458 31.1294 51.9547 31.3574 51.9547L31.3588 51.956ZM40.1992 51.956C40.417 51.9709 40.621 52.0685 40.77 52.229C40.919 52.3895 41.0019 52.601 41.0019 52.8207C41.0019 53.0403 40.919 53.2518 40.77 53.4123C40.621 53.5728 40.417 53.6704 40.1992 53.6853C39.9713 53.6853 39.7527 53.5942 39.5916 53.4321C39.4304 53.2699 39.3399 53.05 39.3399 52.8207C39.3399 52.5914 39.4304 52.3714 39.5916 52.2093C39.7527 52.0471 39.9713 51.956 40.1992 51.956ZM13.674 51.956C13.7895 51.9516 13.9047 51.9708 14.0127 52.0123C14.1207 52.0538 14.2192 52.1168 14.3024 52.1975C14.3856 52.2783 14.4517 52.3751 14.4969 52.4822C14.542 52.5893 14.5651 52.7044 14.565 52.8207C14.5648 52.937 14.5413 53.0521 14.4958 53.1591C14.4504 53.266 14.3839 53.3626 14.3005 53.4431C14.217 53.5236 14.1183 53.5863 14.0102 53.6275C13.9021 53.6686 13.7868 53.6874 13.6713 53.6827C13.4496 53.6736 13.2401 53.5785 13.0865 53.4173C12.933 53.2561 12.8474 53.0413 12.8478 52.8181C12.8481 52.5948 12.9343 52.3803 13.0884 52.2196C13.2424 52.0589 13.4523 51.9644 13.674 51.956ZM22.5144 51.956C22.7421 51.956 22.9605 52.047 23.1215 52.2091C23.2825 52.3711 23.373 52.5909 23.373 52.82C23.373 53.0492 23.2825 53.2689 23.1215 53.431C22.9605 53.593 22.7421 53.684 22.5144 53.684C22.2867 53.684 22.0683 53.593 21.9073 53.431C21.7462 53.2689 21.6558 53.0492 21.6558 52.82C21.6558 52.5909 21.7462 52.3711 21.9073 52.2091C22.0683 52.047 22.2867 51.956 22.5144 51.956ZM26.9359 48.7333C27.3344 48.7333 27.7166 48.8926 27.9984 49.1762C28.2802 49.4598 28.4385 49.8443 28.4385 50.2453C28.4385 50.6464 28.2802 51.0309 27.9984 51.3145C27.7166 51.598 27.3344 51.7573 26.9359 51.7573C26.1078 51.7573 25.4387 51.08 25.4387 50.2467C25.4387 49.4107 26.1091 48.7333 26.9359 48.7333ZM44.6207 48.7333C45.0192 48.7333 45.4014 48.8926 45.6832 49.1762C45.9649 49.4598 46.1232 49.8443 46.1232 50.2453C46.1232 50.6464 45.9649 51.0309 45.6832 51.3145C45.4014 51.598 45.0192 51.7573 44.6207 51.7573C44.2228 51.757 43.8413 51.5977 43.56 51.3144C43.2788 51.0311 43.1208 50.6471 43.1208 50.2467C43.1208 49.4107 43.7926 48.7333 44.6207 48.7333ZM9.25379 48.7333C10.0806 48.7333 10.751 49.4107 10.751 50.2467C10.7595 50.45 10.7271 50.653 10.6556 50.8435C10.5841 51.0339 10.4751 51.2078 10.3351 51.3547C10.1951 51.5016 10.027 51.6185 9.84098 51.6984C9.65493 51.7783 9.45474 51.8194 9.25246 51.8194C9.05019 51.8194 8.85 51.7783 8.66395 51.6984C8.47789 51.6185 8.30981 51.5016 8.16982 51.3547C8.02982 51.2078 7.92081 51.0339 7.84933 50.8435C7.77785 50.653 7.74539 50.45 7.75389 50.2467C7.75389 49.4107 8.42434 48.7333 9.25246 48.7333H9.25379ZM35.7776 49.3813C36.252 49.3813 36.6349 49.768 36.6349 50.2467C36.6349 50.36 36.6127 50.4721 36.5697 50.5768C36.5266 50.6815 36.4634 50.7766 36.3838 50.8567C36.3042 50.9368 36.2097 51.0003 36.1057 51.0437C36.0017 51.087 35.8902 51.1093 35.7776 51.1093C35.6651 51.1093 35.5536 51.087 35.4496 51.0437C35.3456 51.0003 35.2511 50.9368 35.1715 50.8567C35.0918 50.7766 35.0287 50.6815 34.9856 50.5768C34.9425 50.4721 34.9204 50.36 34.9204 50.2467C34.9204 49.7693 35.3046 49.3813 35.7776 49.3813ZM18.0955 49.3813C18.2084 49.3816 18.32 49.4042 18.4242 49.4479C18.5283 49.4916 18.6229 49.5555 18.7025 49.636C18.7821 49.7165 18.8452 49.812 18.8881 49.917C18.9311 50.022 18.953 50.1345 18.9528 50.248C18.9525 50.3616 18.93 50.4739 18.8866 50.5788C18.8432 50.6836 18.7797 50.7787 18.6997 50.8588C18.6197 50.9389 18.5249 51.0024 18.4205 51.0456C18.3162 51.0888 18.2044 51.1109 18.0915 51.1107C17.8635 51.1101 17.645 51.0185 17.4841 50.8558C17.3232 50.6932 17.2331 50.4728 17.2336 50.2433C17.2341 50.0138 17.3252 49.794 17.4869 49.632C17.6485 49.4701 17.8674 49.3808 18.0955 49.3813ZM40.1992 46.8067C40.4271 46.807 40.6455 46.8985 40.8064 47.0609C40.9673 47.2233 41.0575 47.4434 41.0571 47.6727C41.0568 47.902 40.9659 48.1218 40.8045 48.2837C40.6431 48.4456 40.4244 48.5364 40.1965 48.536C40.0837 48.5358 39.972 48.5133 39.8678 48.4697C39.7636 48.4261 39.669 48.3622 39.5893 48.2818C39.5096 48.2014 39.4465 48.106 39.4035 48.001C39.3605 47.896 39.3384 47.7836 39.3386 47.67C39.3388 47.5565 39.3611 47.4441 39.4045 47.3392C39.4478 47.2344 39.5113 47.1392 39.5912 47.059C39.6711 46.9788 39.7659 46.9153 39.8702 46.872C39.9746 46.8287 40.0863 46.8065 40.1992 46.8067ZM13.674 46.8067C13.7871 46.8069 13.899 46.8294 14.0035 46.8732C14.1079 46.9169 14.2027 46.9809 14.2826 47.0615C14.3624 47.1421 14.4257 47.2377 14.4689 47.3429C14.512 47.4481 14.5341 47.5609 14.5339 47.6747C14.5337 47.7885 14.5113 47.9012 14.4678 48.0062C14.4244 48.1113 14.3608 48.2068 14.2807 48.2871C14.2006 48.3675 14.1056 48.4312 14.001 48.4745C13.8965 48.5179 13.7844 48.5402 13.6713 48.54C13.4429 48.5397 13.224 48.448 13.0627 48.2852C12.9015 48.1224 12.8111 47.9019 12.8114 47.672C12.8118 47.4422 12.9028 47.2219 13.0646 47.0596C13.2264 46.8973 13.4456 46.8063 13.674 46.8067ZM31.3574 46.8067C31.5855 46.8067 31.8042 46.8978 31.9655 47.0601C32.1268 47.2224 32.2174 47.4425 32.2174 47.672C32.2174 47.9015 32.1268 48.1216 31.9655 48.2839C31.8042 48.4462 31.5855 48.5373 31.3574 48.5373C31.1294 48.5373 30.9106 48.4462 30.7494 48.2839C30.5881 48.1216 30.4975 47.9015 30.4975 47.672C30.4975 47.4425 30.5881 47.2224 30.7494 47.0601C30.9106 46.8978 31.1294 46.8067 31.3574 46.8067ZM35.7776 43.584C36.1761 43.584 36.5583 43.7433 36.8401 44.0269C37.1219 44.3104 37.2802 44.695 37.2802 45.096C37.2802 45.497 37.1219 45.8816 36.8401 46.1652C36.5583 46.4487 36.1761 46.608 35.7776 46.608C34.9495 46.608 34.2804 45.9307 34.2804 45.0973C34.2804 44.2613 34.9495 43.584 35.7776 43.584ZM18.0955 43.584C18.9236 43.584 19.5928 44.2613 19.5928 45.0973C19.6013 45.3007 19.5688 45.5037 19.4973 45.6941C19.4258 45.8845 19.3168 46.0584 19.1768 46.2054C19.0368 46.3523 18.8688 46.4692 18.6827 46.5491C18.4967 46.6289 18.2965 46.6701 18.0942 46.6701C17.8919 46.6701 17.6917 46.6289 17.5057 46.5491C17.3196 46.4692 17.1515 46.3523 17.0115 46.2054C16.8715 46.0584 16.7625 45.8845 16.6911 45.6941C16.6196 45.5037 16.5871 45.3007 16.5956 45.0973C16.5956 44.2613 17.2674 43.584 18.0955 43.584ZM9.25246 44.2307C9.36522 44.2309 9.47683 44.2534 9.58093 44.297C9.68504 44.3405 9.77959 44.4043 9.8592 44.4847C9.9388 44.565 10.0019 44.6604 10.0449 44.7653C10.0879 44.8702 10.1099 44.9825 10.1097 45.096C10.1096 45.2095 10.0872 45.3218 10.0439 45.4265C10.0006 45.5313 9.93717 45.6265 9.85732 45.7066C9.77747 45.7867 9.68272 45.8502 9.57849 45.8934C9.47425 45.9367 9.36257 45.9589 9.24981 45.9587C9.0221 45.9583 8.80385 45.867 8.64308 45.7047C8.48231 45.5424 8.39219 45.3225 8.39254 45.0933C8.39289 44.8642 8.48369 44.6446 8.64495 44.4828C8.80622 44.321 9.02475 44.2303 9.25246 44.2307ZM44.6194 44.2307C44.8474 44.2307 45.0662 44.3218 45.2274 44.4841C45.3887 44.6464 45.4793 44.8665 45.4793 45.096C45.4793 45.3255 45.3887 45.5456 45.2274 45.7079C45.0662 45.8702 44.8474 45.9613 44.6194 45.9613C44.3913 45.9613 44.1726 45.8702 44.0113 45.7079C43.85 45.5456 43.7594 45.3255 43.7594 45.096C43.7594 44.8665 43.85 44.6464 44.0113 44.4841C44.1726 44.3218 44.3913 44.2307 44.6194 44.2307ZM13.6753 41.6573C13.7879 41.6574 13.8994 41.6798 14.0033 41.7233C14.1073 41.7667 14.2018 41.8303 14.2813 41.9105C14.3608 41.9907 14.4239 42.0858 14.4669 42.1905C14.5099 42.2952 14.532 42.4074 14.5319 42.5207C14.5318 42.634 14.5096 42.7461 14.4664 42.8508C14.4233 42.9554 14.36 43.0504 14.2804 43.1305C14.2007 43.2105 14.1061 43.274 14.0021 43.3173C13.8981 43.3605 13.7866 43.3828 13.674 43.3827C13.4466 43.3827 13.2286 43.2918 13.0678 43.13C12.907 42.9682 12.8167 42.7488 12.8167 42.52C12.8167 42.2912 12.907 42.0718 13.0678 41.91C13.2286 41.7482 13.4466 41.6573 13.674 41.6573H13.6753ZM40.2005 41.6573C40.3162 41.653 40.4315 41.6721 40.5397 41.7137C40.6478 41.7552 40.7465 41.8184 40.8299 41.8992C40.9132 41.9801 40.9794 42.0771 41.0246 42.1843C41.0698 42.2916 41.093 42.4069 41.0928 42.5234C41.0926 42.6399 41.0691 42.7551 41.0236 42.8623C40.9781 42.9694 40.9115 43.0661 40.8279 43.1468C40.7444 43.2274 40.6455 43.2902 40.5372 43.3314C40.4289 43.3726 40.3135 43.3914 40.1978 43.3867C39.9758 43.3776 39.7659 43.2823 39.6121 43.1209C39.4583 42.9594 39.3726 42.7444 39.373 42.5207C39.3733 42.2971 39.4597 42.0823 39.6139 41.9213C39.7682 41.7604 39.9784 41.6658 40.2005 41.6573ZM9.25379 38.4347C10.0819 38.4347 10.7524 39.112 10.7524 39.9453C10.7583 40.1472 10.724 40.3483 10.6513 40.5366C10.5786 40.7249 10.4692 40.8966 10.3294 41.0415C10.1896 41.1864 10.0223 41.3016 9.83739 41.3803C9.65253 41.459 9.45385 41.4995 9.25313 41.4995C9.0524 41.4995 8.85372 41.459 8.66886 41.3803C8.48399 41.3016 8.3167 41.1864 8.17689 41.0415C8.03709 40.8966 7.92761 40.7249 7.85495 40.5366C7.78229 40.3483 7.74792 40.1472 7.75389 39.9453C7.75389 39.112 8.42566 38.4347 9.25379 38.4347ZM44.6207 38.4347C45.0192 38.4347 45.4014 38.594 45.6832 38.8775C45.9649 39.1611 46.1232 39.5457 46.1232 39.9467C46.1232 40.3477 45.9649 40.7323 45.6832 41.0158C45.4014 41.2994 45.0192 41.4587 44.6207 41.4587C44.2222 41.4587 43.84 41.2994 43.5582 41.0158C43.2764 40.7323 43.1181 40.3477 43.1181 39.9467C43.1181 39.5457 43.2764 39.1611 43.5582 38.8775C43.84 38.594 44.2222 38.4347 44.6207 38.4347ZM35.779 39.0827C36.007 39.0832 36.2255 39.1749 36.3864 39.3375C36.5473 39.5002 36.6374 39.7205 36.6369 39.95C36.6364 40.1795 36.5453 40.3994 36.3836 40.5613C36.222 40.7232 36.0031 40.8139 35.775 40.8133C35.5466 40.8128 35.3277 40.721 35.1666 40.5581C35.0054 40.3952 34.9152 40.1745 34.9157 39.9447C34.9163 39.7148 35.0075 39.4946 35.1694 39.3324C35.3313 39.1703 35.5505 39.0795 35.779 39.08V39.0827ZM18.0955 39.0827C18.3236 39.0827 18.5423 39.1738 18.7036 39.3361C18.8648 39.4984 18.9554 39.7185 18.9554 39.948C18.9554 40.1775 18.8648 40.3976 18.7036 40.5599C18.5423 40.7222 18.3236 40.8133 18.0955 40.8133C17.8674 40.8133 17.6487 40.7222 17.4875 40.5599C17.3262 40.3976 17.2356 40.1775 17.2356 39.948C17.2356 39.7185 17.3262 39.4984 17.4875 39.3361C17.6487 39.1738 17.8674 39.0827 18.0955 39.0827ZM31.3588 36.5067C31.4715 36.5068 31.5831 36.5292 31.6873 36.5727C31.7914 36.6162 31.886 36.6799 31.9657 36.7602C32.0454 36.8405 32.1085 36.9358 32.1516 37.0407C32.1947 37.1455 32.2168 37.2579 32.2167 37.3713C32.2166 37.4848 32.1943 37.5971 32.1511 37.7019C32.1079 37.8067 32.0445 37.9019 31.9648 37.9821C31.885 38.0623 31.7903 38.1258 31.6861 38.1692C31.5819 38.2125 31.4702 38.2348 31.3574 38.2347C31.1297 38.2347 30.9113 38.1437 30.7503 37.9816C30.5893 37.8196 30.4988 37.5998 30.4988 37.3707C30.4988 37.1415 30.5893 36.9218 30.7503 36.7597C30.9113 36.5977 31.131 36.5067 31.3588 36.5067ZM40.2005 36.5067C40.4286 36.5067 40.6473 36.5978 40.8085 36.7601C40.9698 36.9224 41.0604 37.1425 41.0604 37.372C41.0604 37.6015 40.9698 37.8216 40.8085 37.9839C40.6473 38.1462 40.4286 38.2373 40.2005 38.2373C39.9724 38.2373 39.7537 38.1462 39.5924 37.9839C39.4312 37.8216 39.3406 37.6015 39.3406 37.372C39.3406 37.1425 39.4312 36.9224 39.5924 36.7601C39.7537 36.5978 39.9724 36.5067 40.2005 36.5067ZM13.674 36.5067C13.7895 36.5022 13.9047 36.5212 14.0127 36.5627C14.1207 36.6041 14.2193 36.667 14.3026 36.7477C14.3859 36.8284 14.4521 36.9251 14.4973 37.0322C14.5425 37.1392 14.5657 37.2544 14.5656 37.3707C14.5656 37.487 14.5421 37.6021 14.4968 37.7091C14.4514 37.8161 14.385 37.9128 14.3016 37.9933C14.2183 38.0739 14.1196 38.1367 14.0115 38.1779C13.9034 38.2191 13.7882 38.238 13.6727 38.2333C13.451 38.2242 13.2414 38.1291 13.0878 37.9679C12.9343 37.8067 12.8487 37.592 12.8491 37.3687C12.8494 37.1455 12.9357 36.931 13.0897 36.7703C13.2437 36.6096 13.4536 36.5151 13.6753 36.5067H13.674ZM18.0955 33.284C18.9236 33.284 19.5941 33.9627 19.5941 34.796C19.6026 34.9994 19.5701 35.2024 19.4986 35.3928C19.4272 35.5832 19.3182 35.7571 19.1782 35.904C19.0382 36.051 18.8701 36.1679 18.684 36.2477C18.498 36.3276 18.2978 36.3688 18.0955 36.3688C17.8932 36.3688 17.6931 36.3276 17.507 36.2477C17.3209 36.1679 17.1529 36.051 17.0129 35.904C16.8729 35.7571 16.7639 35.5832 16.6924 35.3928C16.6209 35.2024 16.5884 34.9994 16.5969 34.796C16.5969 33.9627 17.2674 33.284 18.0955 33.284ZM35.779 33.284C36.6071 33.284 37.2789 33.9627 37.2789 34.796C37.2848 34.9979 37.2505 35.199 37.1778 35.3872C37.1051 35.5755 36.9957 35.7472 36.8559 35.8921C36.7161 36.0371 36.5488 36.1523 36.3639 36.231C36.179 36.3097 35.9803 36.3502 35.7796 36.3502C35.5789 36.3502 35.3802 36.3097 35.1954 36.231C35.0105 36.1523 34.8432 36.0371 34.7034 35.8921C34.5636 35.7472 34.4541 35.5755 34.3815 35.3872C34.3088 35.199 34.2744 34.9979 34.2804 34.796C34.2804 33.9627 34.9508 33.284 35.779 33.284ZM44.622 33.932C44.7348 33.9321 44.8464 33.9545 44.9505 33.998C45.0547 34.0415 45.1493 34.1053 45.2289 34.1855C45.3086 34.2658 45.3718 34.3611 45.4148 34.466C45.4579 34.5708 45.48 34.6832 45.48 34.7967C45.4799 34.9101 45.4576 35.0225 45.4143 35.1273C45.3711 35.2321 45.3078 35.3273 45.228 35.4074C45.1482 35.4876 45.0535 35.5512 44.9493 35.5945C44.8451 35.6378 44.7334 35.6601 44.6207 35.66C44.393 35.66 44.1746 35.569 44.0136 35.407C43.8526 35.2449 43.7621 35.0252 43.7621 34.796C43.7621 34.5669 43.8526 34.3471 44.0136 34.1851C44.1746 34.023 44.3943 33.932 44.622 33.932ZM9.25511 33.932C9.72814 33.932 10.1111 34.3187 10.1111 34.7973C10.1108 34.9682 10.0602 35.1352 9.96563 35.2771C9.87106 35.4191 9.7368 35.5296 9.57981 35.5948C9.42282 35.6599 9.25016 35.6767 9.08366 35.6431C8.91716 35.6096 8.7643 35.527 8.64441 35.406C8.52451 35.285 8.44298 35.1309 8.4101 34.9633C8.37723 34.7956 8.3945 34.6219 8.45973 34.4641C8.52496 34.3064 8.63521 34.1716 8.77655 34.0769C8.91789 33.9822 9.0853 33.9317 9.25511 33.932ZM26.9372 33.932C27.1653 33.932 27.384 34.0232 27.5453 34.1855C27.7066 34.3477 27.7972 34.5678 27.7972 34.7973C27.7972 35.0268 27.7066 35.2469 27.5453 35.4092C27.384 35.5715 27.1653 35.6627 26.9372 35.6627C26.7092 35.6627 26.4904 35.5715 26.3292 35.4092C26.1679 35.2469 26.0773 35.0268 26.0773 34.7973C26.0773 34.5678 26.1679 34.3477 26.3292 34.1855C26.4904 34.0232 26.7092 33.932 26.9372 33.932ZM13.674 31.356C13.7895 31.3516 13.9047 31.3708 14.0127 31.4123C14.1207 31.4538 14.2192 31.5168 14.3024 31.5975C14.3856 31.6783 14.4517 31.7751 14.4969 31.8822C14.542 31.9893 14.5651 32.1044 14.565 32.2207C14.5648 32.337 14.5413 32.4521 14.4958 32.5591C14.4504 32.666 14.3839 32.7626 14.3005 32.8431C14.217 32.9236 14.1183 32.9863 14.0102 33.0275C13.9021 33.0687 13.7868 33.0874 13.6713 33.0827C13.4496 33.0736 13.2401 32.9785 13.0865 32.8173C12.933 32.6561 12.8474 32.4413 12.8478 32.2181C12.8481 31.9948 12.9343 31.7803 13.0884 31.6196C13.2424 31.4589 13.4523 31.3644 13.674 31.356ZM31.3574 31.356C31.4702 31.3561 31.5818 31.3785 31.686 31.422C31.7901 31.4655 31.8847 31.5293 31.9644 31.6095C32.044 31.6898 32.1072 31.7851 32.1503 31.89C32.1933 31.9948 32.2155 32.1072 32.2154 32.2207C32.2153 32.3341 32.193 32.4465 32.1498 32.5513C32.1065 32.6561 32.0432 32.7513 31.9634 32.8314C31.8836 32.9116 31.7889 32.9752 31.6847 33.0185C31.5805 33.0618 31.4689 33.0841 31.3561 33.084C31.1284 33.084 30.91 32.993 30.749 32.831C30.588 32.6689 30.4975 32.4492 30.4975 32.22C30.4975 31.9909 30.588 31.7711 30.749 31.6091C30.91 31.447 31.1297 31.356 31.3574 31.356ZM40.1992 31.356C40.417 31.3709 40.621 31.4685 40.77 31.629C40.919 31.7895 41.0019 32.001 41.0019 32.2207C41.0019 32.4403 40.919 32.6518 40.77 32.8123C40.621 32.9728 40.417 33.0704 40.1992 33.0853C39.9713 33.0853 39.7527 32.9942 39.5916 32.8321C39.4304 32.6699 39.3399 32.45 39.3399 32.2207C39.3399 31.9914 39.4304 31.7714 39.5916 31.6093C39.7527 31.4471 39.9713 31.356 40.1992 31.356ZM9.25246 28.1333C10.0806 28.1333 10.751 28.8107 10.751 29.6453C10.7595 29.8487 10.7271 30.0517 10.6556 30.2421C10.5841 30.4325 10.4751 30.6064 10.3351 30.7534C10.1951 30.9003 10.027 31.0172 9.84098 31.0971C9.65493 31.1769 9.45474 31.2181 9.25246 31.2181C9.05019 31.2181 8.85 31.1769 8.66395 31.0971C8.47789 31.0172 8.30981 30.9003 8.16982 30.7534C8.02982 30.6064 7.92081 30.4325 7.84933 30.2421C7.77785 30.0517 7.74539 29.8487 7.75389 29.6453C7.75389 28.8107 8.42434 28.1333 9.25246 28.1333ZM26.9359 28.1333C27.764 28.1333 28.4358 28.8107 28.4358 29.6453C28.4358 30.4827 27.764 31.1587 26.9359 31.1587C26.1078 31.1587 25.4387 30.4813 25.4387 29.6453C25.4387 28.8107 26.1091 28.1333 26.9359 28.1333ZM18.0955 28.7813C18.3153 28.7936 18.5221 28.8902 18.6734 29.0511C18.8247 29.212 18.909 29.4251 18.909 29.6467C18.909 29.8682 18.8247 30.0813 18.6734 30.2423C18.5221 30.4032 18.3153 30.4997 18.0955 30.512C17.8757 30.4997 17.6689 30.4032 17.5176 30.2423C17.3663 30.0813 17.282 29.8682 17.282 29.6467C17.282 29.4251 17.3663 29.212 17.5176 29.0511C17.6689 28.8902 17.8757 28.7936 18.0955 28.7813ZM35.7776 28.7813C36.0057 28.7813 36.2244 28.8725 36.3857 29.0348C36.547 29.1971 36.6376 29.4172 36.6376 29.6467C36.6376 29.8762 36.547 30.0963 36.3857 30.2586C36.2244 30.4208 36.0057 30.512 35.7776 30.512C35.5578 30.4997 35.351 30.4032 35.1997 30.2423C35.0484 30.0813 34.9641 29.8682 34.9641 29.6467C34.9641 29.4251 35.0484 29.212 35.1997 29.0511C35.351 28.8902 35.5578 28.7936 35.7776 28.7813ZM13.674 26.208C13.9024 26.208 14.1215 26.2993 14.283 26.4619C14.4445 26.6244 14.5352 26.8448 14.5352 27.0747C14.5352 27.3045 14.4445 27.525 14.283 27.6875C14.1215 27.85 13.9024 27.9413 13.674 27.9413C13.4456 27.9413 13.2265 27.85 13.065 27.6875C12.9035 27.525 12.8127 27.3045 12.8127 27.0747C12.8127 26.8448 12.9035 26.6244 13.065 26.4619C13.2265 26.2993 13.4456 26.208 13.674 26.208ZM31.3574 26.208C31.47 26.208 31.5815 26.2303 31.6855 26.2737C31.7895 26.317 31.884 26.3806 31.9636 26.4607C32.0432 26.5408 32.1064 26.6359 32.1495 26.7406C32.1925 26.8452 32.2147 26.9574 32.2147 27.0707C32.2147 27.184 32.1925 27.2961 32.1495 27.4008C32.1064 27.5055 32.0432 27.6006 31.9636 27.6807C31.884 27.7608 31.7895 27.8243 31.6855 27.8677C31.5815 27.911 31.47 27.9333 31.3574 27.9333C31.1301 27.9333 30.912 27.8425 30.7513 27.6807C30.5905 27.5189 30.5002 27.2995 30.5002 27.0707C30.5002 26.8419 30.5905 26.6225 30.7513 26.4607C30.912 26.2989 31.1301 26.208 31.3574 26.208ZM18.0942 22.9853C18.9236 22.9853 19.5928 23.664 19.5928 24.4973C19.6013 24.7007 19.5688 24.9037 19.4973 25.0941C19.4258 25.2845 19.3168 25.4584 19.1768 25.6054C19.0368 25.7523 18.8688 25.8692 18.6827 25.9491C18.4967 26.0289 18.2965 26.0701 18.0942 26.0701C17.8919 26.0701 17.6917 26.0289 17.5057 25.9491C17.3196 25.8692 17.1515 25.7523 17.0115 25.6054C16.8715 25.4584 16.7625 25.2845 16.6911 25.0941C16.6196 24.9037 16.5871 24.7007 16.5956 24.4973C16.5956 23.6627 17.2661 22.9853 18.0942 22.9853ZM9.25246 23.6333C9.48088 23.6333 9.69994 23.7247 9.86146 23.8872C10.023 24.0497 10.1137 24.2702 10.1137 24.5C10.1137 24.7299 10.023 24.9503 9.86146 25.1128C9.69994 25.2754 9.48088 25.3667 9.25246 25.3667C9.02405 25.3667 8.80498 25.2754 8.64347 25.1128C8.48195 24.9503 8.39121 24.7299 8.39121 24.5C8.39121 24.2702 8.48195 24.0497 8.64347 23.8872C8.80498 23.7247 9.02405 23.6333 9.25246 23.6333ZM26.9359 23.6333C27.1635 23.6333 27.3817 23.7243 27.5426 23.8862C27.7035 24.0481 27.7939 24.2677 27.7939 24.4967C27.7939 24.7256 27.7035 24.9452 27.5426 25.1071C27.3817 25.2691 27.1635 25.36 26.9359 25.36C26.7084 25.36 26.4902 25.2691 26.3293 25.1071C26.1684 24.9452 26.078 24.7256 26.078 24.4967C26.078 24.2677 26.1684 24.0481 26.3293 23.8862C26.4902 23.7243 26.7084 23.6333 26.9359 23.6333ZM13.674 21.0573C13.7869 21.0575 13.8987 21.0801 14.003 21.1237C14.1072 21.1674 14.2019 21.2313 14.2817 21.3117C14.3614 21.3922 14.4246 21.4877 14.4676 21.5928C14.5107 21.6978 14.5328 21.8104 14.5326 21.924C14.5324 22.0376 14.51 22.1501 14.4666 22.2551C14.4232 22.36 14.3598 22.4553 14.2798 22.5355C14.1998 22.6157 14.1049 22.6793 14.0005 22.7227C13.8961 22.766 13.7843 22.7882 13.6713 22.788C13.4433 22.7877 13.2247 22.6962 13.0637 22.5336C12.9026 22.3711 12.8124 22.1508 12.8127 21.9213C12.8131 21.6918 12.904 21.4719 13.0655 21.3099C13.2271 21.1478 13.4459 21.057 13.674 21.0573ZM18.0955 18.484C18.211 18.4796 18.3262 18.4988 18.4342 18.5403C18.5422 18.5818 18.6407 18.6448 18.7239 18.7255C18.8071 18.8063 18.8733 18.9031 18.9184 19.0102C18.9635 19.1173 18.9867 19.2324 18.9865 19.3487C18.9863 19.465 18.9628 19.5801 18.9173 19.6871C18.8719 19.794 18.8055 19.8906 18.722 19.9711C18.6386 20.0516 18.5398 20.1143 18.4317 20.1555C18.3236 20.1967 18.2084 20.2154 18.0929 20.2107C17.8712 20.2016 17.6616 20.1065 17.508 19.9453C17.3545 19.7841 17.2689 19.5693 17.2693 19.3461C17.2696 19.1228 17.3559 18.9083 17.5099 18.7476C17.6639 18.5869 17.8738 18.4924 18.0955 18.484Z" fill="white"/>
<path d="M26.9373 64.8307C27.0528 64.8262 27.168 64.8453 27.276 64.8867C27.384 64.9281 27.4826 64.991 27.5659 65.0717C27.6491 65.1524 27.7154 65.2492 27.7606 65.3562C27.8058 65.4633 27.829 65.5784 27.8289 65.6947C27.8288 65.8111 27.8054 65.9262 27.76 66.0331C27.7147 66.1401 27.6483 66.2368 27.5649 66.3173C27.4815 66.3979 27.3828 66.4607 27.2748 66.5019C27.1667 66.5432 27.0514 66.562 26.9359 66.5574C26.7142 66.5486 26.5045 66.4538 26.3507 66.2929C26.197 66.1319 26.1111 65.9173 26.1111 65.694C26.1111 65.4708 26.197 65.2562 26.3507 65.0952C26.5045 64.9343 26.7156 64.8395 26.9373 64.8307ZM31.3588 62.256C31.5869 62.256 31.8056 62.3472 31.9668 62.5095C32.1281 62.6718 32.2187 62.8919 32.2187 63.1214C32.2187 63.3509 32.1281 63.571 31.9668 63.7333C31.8056 63.8955 31.5869 63.9867 31.3588 63.9867C31.1307 63.9867 30.912 63.8955 30.7507 63.7333C30.5895 63.571 30.4989 63.3509 30.4989 63.1214C30.4989 62.8919 30.5895 62.6718 30.7507 62.5095C30.912 62.3472 31.1307 62.256 31.3588 62.256ZM35.779 59.6814C36.0074 59.6814 36.2265 59.7727 36.388 59.9352C36.5495 60.0977 36.6402 60.3182 36.6402 60.548C36.6402 60.7779 36.5495 60.9983 36.388 61.1609C36.2265 61.3234 36.0074 61.4147 35.779 61.4147C35.5506 61.4147 35.3315 61.3234 35.17 61.1609C35.0085 60.9983 34.9177 60.7779 34.9177 60.548C34.9177 60.3182 35.0085 60.0977 35.17 59.9352C35.3315 59.7727 35.5506 59.6814 35.779 59.6814ZM40.2005 57.1054C40.3134 57.1055 40.4251 57.1281 40.5292 57.1717C40.6334 57.2153 40.728 57.2792 40.8077 57.3596C40.8874 57.44 40.9505 57.5354 40.9935 57.6404C41.0366 57.7454 41.0586 57.8578 41.0584 57.9714C41.0583 58.0849 41.0359 58.1973 40.9925 58.3022C40.9492 58.407 40.8858 58.5022 40.8058 58.5824C40.7259 58.6626 40.6311 58.7261 40.5268 58.7694C40.4225 58.8127 40.3107 58.8349 40.1979 58.8347C39.97 58.8344 39.7516 58.7429 39.5907 58.5805C39.4298 58.4181 39.3396 58.198 39.3399 57.9687C39.3403 57.7394 39.4311 57.5196 39.5925 57.3577C39.7539 57.1958 39.9726 57.105 40.2005 57.1054ZM44.622 54.532C44.7375 54.5276 44.8528 54.5466 44.9608 54.588C45.0688 54.6294 45.1674 54.6924 45.2506 54.773C45.3339 54.8537 45.4001 54.9505 45.4453 55.0576C45.4905 55.1646 45.5138 55.2798 45.5137 55.3961C45.5136 55.5124 45.4902 55.6275 45.4448 55.7345C45.3994 55.8415 45.3331 55.9381 45.2497 56.0187C45.1663 56.0992 45.0676 56.162 44.9595 56.2033C44.8515 56.2445 44.7362 56.2634 44.6207 56.2587C44.393 56.2587 44.1746 56.1677 44.0136 56.0056C43.8526 55.8436 43.7621 55.6239 43.7621 55.3947C43.7621 55.1656 43.8526 54.9458 44.0136 54.7838C44.1746 54.6217 44.393 54.5307 44.6207 54.5307L44.622 54.532ZM4.83229 51.956C4.94504 51.9561 5.05667 51.9786 5.16081 52.0221C5.26495 52.0656 5.35955 52.1293 5.43922 52.2096C5.51888 52.2899 5.58205 52.3852 5.62512 52.49C5.66819 52.5949 5.69031 52.7072 5.69023 52.8207C5.69014 52.9342 5.66784 53.0465 5.62462 53.1513C5.58139 53.2561 5.51807 53.3513 5.43828 53.4315C5.35849 53.5116 5.26379 53.5752 5.15959 53.6185C5.05538 53.6619 4.94372 53.6841 4.83096 53.684C4.60325 53.684 4.38486 53.593 4.22384 53.431C4.06282 53.269 3.97236 53.0492 3.97236 52.82C3.97236 52.5909 4.06282 52.3711 4.22384 52.2091C4.38486 52.0471 4.60325 51.956 4.83096 51.956H4.83229ZM49.0409 51.956C49.1564 51.9517 49.2716 51.9708 49.3796 52.0123C49.4876 52.0538 49.5861 52.1168 49.6693 52.1975C49.7525 52.2783 49.8187 52.3751 49.8638 52.4822C49.9089 52.5893 49.9321 52.7044 49.9319 52.8208C49.9317 52.9371 49.9082 53.0522 49.8627 53.1591C49.8173 53.2661 49.7509 53.3627 49.6674 53.4432C49.584 53.5237 49.4852 53.5864 49.3771 53.6275C49.269 53.6687 49.1538 53.6875 49.0383 53.6827C48.8166 53.6736 48.607 53.5785 48.4534 53.4173C48.2999 53.2561 48.2143 53.0414 48.2147 52.8181C48.215 52.5948 48.3012 52.3803 48.4553 52.2196C48.6093 52.0589 48.8192 51.9645 49.0409 51.956ZM49.0409 46.8067C49.2693 46.8071 49.4882 46.8987 49.6495 47.0615C49.8108 47.2243 49.9012 47.4449 49.9008 47.6747C49.9005 47.9046 49.8094 48.1249 49.6476 48.2871C49.4859 48.4494 49.2667 48.5404 49.0383 48.54C48.9252 48.5399 48.8132 48.5173 48.7088 48.4736C48.6044 48.4298 48.5095 48.3659 48.4297 48.2853C48.3498 48.2047 48.2865 48.109 48.2434 48.0038C48.2003 47.8986 48.1782 47.7859 48.1783 47.672C48.1785 47.5582 48.201 47.4456 48.2444 47.3405C48.2878 47.2354 48.3514 47.14 48.4315 47.0596C48.5116 46.9793 48.6067 46.9156 48.7112 46.8722C48.8158 46.8288 48.9278 46.8065 49.0409 46.8067ZM4.83229 46.8067C5.06036 46.8067 5.27908 46.8979 5.44035 47.0602C5.60161 47.2224 5.69221 47.4425 5.69221 47.672C5.69221 47.9015 5.60161 48.1216 5.44035 48.2839C5.27908 48.4462 5.06036 48.5374 4.83229 48.5374C4.60422 48.5374 4.3855 48.4462 4.22423 48.2839C4.06296 48.1216 3.97236 47.9015 3.97236 47.672C3.97236 47.4425 4.06296 47.2224 4.22423 47.0602C4.3855 46.8979 4.60422 46.8067 4.83229 46.8067ZM22.5144 46.8067C22.7425 46.8067 22.9612 46.8979 23.1225 47.0602C23.2837 47.2224 23.3743 47.4425 23.3743 47.672C23.3743 47.9015 23.2837 48.1216 23.1225 48.2839C22.9612 48.4462 22.7425 48.5374 22.5144 48.5374C22.2863 48.5374 22.0676 48.4462 21.9064 48.2839C21.7451 48.1216 21.6545 47.9015 21.6545 47.672C21.6545 47.4425 21.7451 47.2224 21.9064 47.0602C22.0676 46.8979 22.2863 46.8067 22.5144 46.8067ZM26.9359 44.2307C27.1638 44.2309 27.3823 44.3222 27.5433 44.4844C27.7044 44.6467 27.7947 44.8667 27.7945 45.096C27.7944 45.3254 27.7037 45.5452 27.5424 45.7073C27.3811 45.8693 27.1625 45.9602 26.9346 45.96C26.7067 45.9599 26.4882 45.8686 26.3272 45.7063C26.1662 45.544 26.0758 45.324 26.076 45.0947C26.0762 44.8654 26.1669 44.6455 26.3282 44.4835C26.4894 44.3215 26.708 44.2305 26.9359 44.2307ZM4.83229 41.6574C4.94487 41.6574 5.05634 41.6797 5.16035 41.723C5.26436 41.7664 5.35887 41.8299 5.43847 41.91C5.51808 41.9902 5.58123 42.0853 5.62431 42.1899C5.66739 42.2946 5.68956 42.4068 5.68956 42.52C5.68956 42.6333 5.66739 42.7455 5.62431 42.8502C5.58123 42.9548 5.51808 43.0499 5.43847 43.13C5.35887 43.2101 5.26436 43.2737 5.16035 43.317C5.05634 43.3604 4.94487 43.3827 4.83229 43.3827C4.60493 43.3827 4.38687 43.2918 4.2261 43.13C4.06533 42.9683 3.97501 42.7488 3.97501 42.52C3.97501 42.2912 4.06533 42.0718 4.2261 41.91C4.38687 41.7483 4.60493 41.6574 4.83229 41.6574ZM22.5144 41.6574C22.627 41.6574 22.7385 41.6797 22.8425 41.723C22.9465 41.7664 23.041 41.8299 23.1206 41.91C23.2002 41.9902 23.2634 42.0853 23.3064 42.1899C23.3495 42.2946 23.3717 42.4068 23.3717 42.52C23.3717 42.6333 23.3495 42.7455 23.3064 42.8502C23.2634 42.9548 23.2002 43.0499 23.1206 43.13C23.041 43.2101 22.9465 43.2737 22.8425 43.317C22.7385 43.3604 22.627 43.3827 22.5144 43.3827C22.2871 43.3827 22.069 43.2918 21.9082 43.13C21.7475 42.9683 21.6571 42.7488 21.6571 42.52C21.6571 42.2912 21.7475 42.0718 21.9082 41.91C22.069 41.7483 22.2871 41.6574 22.5144 41.6574ZM31.3575 41.6574C31.47 41.6574 31.5815 41.6797 31.6855 41.723C31.7895 41.7664 31.884 41.8299 31.9636 41.91C32.0433 41.9902 32.1064 42.0853 32.1495 42.1899C32.1926 42.2946 32.2147 42.4068 32.2147 42.52C32.2147 42.6333 32.1926 42.7455 32.1495 42.8502C32.1064 42.9548 32.0433 43.0499 31.9636 43.13C31.884 43.2101 31.7895 43.2737 31.6855 43.317C31.5815 43.3604 31.47 43.3827 31.3575 43.3827C31.1301 43.3827 30.912 43.2918 30.7513 43.13C30.5905 42.9683 30.5002 42.7488 30.5002 42.52C30.5002 42.2912 30.5905 42.0718 30.7513 41.91C30.912 41.7483 31.1301 41.6574 31.3575 41.6574ZM49.0409 41.6574C49.1535 41.6574 49.265 41.6797 49.369 41.723C49.473 41.7664 49.5675 41.8299 49.6471 41.91C49.7267 41.9902 49.7898 42.0853 49.8329 42.1899C49.876 42.2946 49.8982 42.4068 49.8982 42.52C49.8982 42.6333 49.876 42.7455 49.8329 42.8502C49.7898 42.9548 49.7267 43.0499 49.6471 43.13C49.5675 43.2101 49.473 43.2737 49.369 43.317C49.265 43.3604 49.1535 43.3827 49.0409 43.3827C48.8135 43.3827 48.5955 43.2918 48.4347 43.13C48.274 42.9683 48.1836 42.7488 48.1836 42.52C48.1836 42.2912 48.274 42.0718 48.4347 41.91C48.5955 41.7483 48.8135 41.6574 49.0409 41.6574ZM26.9373 39.0827C27.1653 39.0827 27.3841 39.1739 27.5453 39.3362C27.7066 39.4984 27.7972 39.7185 27.7972 39.948C27.7972 40.1775 27.7066 40.3976 27.5453 40.5599C27.3841 40.7222 27.1653 40.8134 26.9373 40.8134C26.7092 40.8134 26.4905 40.7222 26.3292 40.5599C26.1679 40.3976 26.0773 40.1775 26.0773 39.948C26.0773 39.7185 26.1679 39.4984 26.3292 39.3362C26.4905 39.1739 26.7092 39.0827 26.9373 39.0827ZM4.83229 36.5067C4.94504 36.5068 5.05667 36.5292 5.16081 36.5727C5.26495 36.6162 5.35955 36.6799 5.43922 36.7602C5.51888 36.8405 5.58205 36.9358 5.62512 37.0407C5.66819 37.1455 5.69031 37.2579 5.69023 37.3714C5.69014 37.4848 5.66784 37.5972 5.62462 37.702C5.58139 37.8068 5.51807 37.902 5.43828 37.9821C5.35849 38.0623 5.26379 38.1259 5.15959 38.1692C5.05538 38.2125 4.94372 38.2348 4.83096 38.2347C4.60325 38.2347 4.38486 38.1437 4.22384 37.9816C4.06282 37.8196 3.97236 37.5999 3.97236 37.3707C3.97236 37.1416 4.06282 36.9218 4.22384 36.7598C4.38486 36.5977 4.60325 36.5067 4.83096 36.5067H4.83229ZM22.5144 36.5067C22.6272 36.5067 22.7388 36.5291 22.843 36.5725C22.9472 36.6159 23.0418 36.6795 23.1215 36.7598C23.2013 36.84 23.2645 36.9352 23.3077 37.0401C23.3508 37.1449 23.373 37.2572 23.373 37.3707C23.373 37.4842 23.3508 37.5965 23.3077 37.7013C23.2645 37.8062 23.2013 37.9014 23.1215 37.9816C23.0418 38.0619 22.9472 38.1255 22.843 38.1689C22.7388 38.2124 22.6272 38.2347 22.5144 38.2347C22.2867 38.2347 22.0683 38.1437 21.9073 37.9816C21.7463 37.8196 21.6558 37.5999 21.6558 37.3707C21.6558 37.1416 21.7463 36.9218 21.9073 36.7598C22.0683 36.5977 22.2867 36.5067 22.5144 36.5067ZM49.0409 36.5067C49.1564 36.5022 49.2716 36.5213 49.3796 36.5627C49.4877 36.6041 49.5863 36.667 49.6695 36.7477C49.7528 36.8284 49.819 36.9252 49.8642 37.0322C49.9094 37.1393 49.9326 37.2544 49.9326 37.3707C49.9325 37.4871 49.909 37.6022 49.8637 37.7091C49.8183 37.8161 49.752 37.9128 49.6686 37.9934C49.5852 38.0739 49.4865 38.1367 49.3784 38.1779C49.2703 38.2192 49.1551 38.238 49.0396 38.2334C48.8179 38.2244 48.6082 38.1295 48.4546 37.9684C48.3009 37.8073 48.2152 37.5927 48.2154 37.3694C48.2155 37.1461 48.3016 36.9316 48.4555 36.7708C48.6094 36.6099 48.8192 36.5153 49.0409 36.5067ZM22.5144 31.3574C22.6299 31.3529 22.7451 31.3719 22.8532 31.4133C22.9612 31.4548 23.0598 31.5177 23.143 31.5984C23.2263 31.6791 23.2925 31.7758 23.3377 31.8829C23.3829 31.9899 23.4062 32.1051 23.4061 32.2214C23.406 32.3377 23.3825 32.4528 23.3372 32.5598C23.2918 32.6668 23.2255 32.7635 23.1421 32.844C23.0587 32.9246 22.96 32.9874 22.8519 33.0286C22.7438 33.0698 22.6286 33.0887 22.5131 33.084C22.2914 33.0753 22.0817 32.9805 21.9279 32.8195C21.7741 32.6586 21.6882 32.444 21.6882 32.2207C21.6882 31.9974 21.7741 31.7828 21.9279 31.6219C22.0817 31.4609 22.2914 31.3661 22.5131 31.3574H22.5144ZM49.0409 31.3574C49.1564 31.3531 49.2716 31.3723 49.3795 31.4139C49.4875 31.4555 49.586 31.5186 49.6691 31.5994C49.7523 31.6802 49.8183 31.7771 49.8633 31.8842C49.9084 31.9913 49.9315 32.1065 49.9312 32.2228C49.9309 32.3391 49.9073 32.4542 49.8618 32.5611C49.8163 32.668 49.7498 32.7646 49.6663 32.845C49.5827 32.9254 49.484 32.988 49.3758 33.0291C49.2677 33.0702 49.1524 33.0889 49.0369 33.084C48.8152 33.0748 48.6057 32.9795 48.4523 32.8182C48.2989 32.6569 48.2135 32.4421 48.214 32.2188C48.2145 31.9955 48.3009 31.7811 48.4551 31.6205C48.6092 31.4599 48.8192 31.3656 49.0409 31.3574ZM4.83096 31.3574C5.05885 31.3574 5.27741 31.4485 5.43855 31.6106C5.5997 31.7728 5.69023 31.9927 5.69023 32.222C5.69023 32.4514 5.5997 32.6713 5.43855 32.8335C5.27741 32.9956 5.05885 33.0867 4.83096 33.0867C4.6029 33.0867 4.38417 32.9955 4.22291 32.8333C4.06164 32.671 3.97104 32.4509 3.97104 32.2214C3.97104 31.9919 4.06164 31.7718 4.22291 31.6095C4.38417 31.4472 4.6029 31.3574 4.83096 31.3574ZM44.6194 28.7827C44.8392 28.795 45.046 28.8915 45.1973 29.0524C45.3486 29.2134 45.4329 29.4265 45.4329 29.648C45.4329 29.8696 45.3486 30.0827 45.1973 30.2436C45.046 30.4046 44.8392 30.5011 44.6194 30.5134C44.3996 30.5011 44.1928 30.4046 44.0415 30.2436C43.8902 30.0827 43.8059 29.8696 43.8059 29.648C43.8059 29.4265 43.8902 29.2134 44.0415 29.0524C44.1928 28.8915 44.3996 28.795 44.6194 28.7827ZM4.83229 26.208C4.94487 26.208 5.05634 26.2304 5.16035 26.2737C5.26436 26.3171 5.35887 26.3806 5.43847 26.4607C5.51808 26.5408 5.58123 26.6359 5.62431 26.7406C5.66739 26.8452 5.68956 26.9574 5.68956 27.0707C5.68956 27.184 5.66739 27.2962 5.62431 27.4008C5.58123 27.5055 5.51808 27.6006 5.43847 27.6807C5.35887 27.7608 5.26436 27.8244 5.16035 27.8677C5.05634 27.9111 4.94487 27.9334 4.83229 27.9334C4.60493 27.9334 4.38687 27.8425 4.2261 27.6807C4.06533 27.5189 3.97501 27.2995 3.97501 27.0707C3.97501 26.8419 4.06533 26.6225 4.2261 26.4607C4.38687 26.2989 4.60493 26.208 4.83229 26.208ZM22.5144 26.208C22.627 26.208 22.7385 26.2304 22.8425 26.2737C22.9465 26.3171 23.041 26.3806 23.1206 26.4607C23.2002 26.5408 23.2634 26.6359 23.3064 26.7406C23.3495 26.8452 23.3717 26.9574 23.3717 27.0707C23.3717 27.184 23.3495 27.2962 23.3064 27.4008C23.2634 27.5055 23.2002 27.6006 23.1206 27.6807C23.041 27.7608 22.9465 27.8244 22.8425 27.8677C22.7385 27.9111 22.627 27.9334 22.5144 27.9334C22.2871 27.9334 22.069 27.8425 21.9082 27.6807C21.7475 27.5189 21.6571 27.2995 21.6571 27.0707C21.6571 26.8419 21.7475 26.6225 21.9082 26.4607C22.069 26.2989 22.2871 26.208 22.5144 26.208ZM40.1992 26.208C40.4271 26.2084 40.6455 26.2998 40.8064 26.4622C40.9673 26.6246 41.0575 26.8447 41.0571 27.074C41.0568 27.3034 40.9659 27.5232 40.8045 27.6851C40.6431 27.847 40.4244 27.9377 40.1965 27.9374C40.0837 27.9372 39.972 27.9147 39.8678 27.871C39.7636 27.8274 39.669 27.7636 39.5893 27.6832C39.5097 27.6028 39.4465 27.5073 39.4035 27.4024C39.3605 27.2974 39.3384 27.1849 39.3386 27.0714C39.3388 26.9578 39.3612 26.8454 39.4045 26.7406C39.4479 26.6357 39.5113 26.5405 39.5912 26.4604C39.6711 26.3802 39.7659 26.3166 39.8703 26.2734C39.9746 26.2301 40.0863 26.2079 40.1992 26.208ZM49.0409 26.208C49.2693 26.208 49.4884 26.2993 49.6499 26.4619C49.8114 26.6244 49.9022 26.8449 49.9022 27.0747C49.9022 27.3046 49.8114 27.525 49.6499 27.6875C49.4884 27.8501 49.2693 27.9414 49.0409 27.9414C48.8125 27.9414 48.5934 27.8501 48.4319 27.6875C48.2704 27.525 48.1797 27.3046 48.1797 27.0747C48.1797 26.8449 48.2704 26.6244 48.4319 26.4619C48.5934 26.2993 48.8125 26.208 49.0409 26.208ZM35.7777 23.6334C36.0061 23.6334 36.2251 23.7247 36.3867 23.8872C36.5482 24.0497 36.6389 24.2702 36.6389 24.5C36.6389 24.7299 36.5482 24.9503 36.3867 25.1129C36.2251 25.2754 36.0061 25.3667 35.7777 25.3667C35.5492 25.3667 35.3302 25.2754 35.1687 25.1129C35.0072 24.9503 34.9164 24.7299 34.9164 24.5C34.9164 24.2702 35.0072 24.0497 35.1687 23.8872C35.3302 23.7247 35.5492 23.6334 35.7777 23.6334ZM44.6207 23.6334C44.8484 23.6334 45.0668 23.7244 45.2278 23.8864C45.3889 24.0485 45.4793 24.2682 45.4793 24.4974C45.4793 24.7265 45.3889 24.9463 45.2278 25.1083C45.0668 25.2703 44.8484 25.3614 44.6207 25.3614C44.393 25.3614 44.1746 25.2703 44.0136 25.1083C43.8526 24.9463 43.7621 24.7265 43.7621 24.4974C43.7621 24.2682 43.8526 24.0485 44.0136 23.8864C44.1746 23.7244 44.393 23.6334 44.6207 23.6334ZM22.5144 21.0574C22.6273 21.0575 22.7391 21.0799 22.8434 21.1235C22.9477 21.1671 23.0425 21.2309 23.1223 21.3113C23.2021 21.3917 23.2653 21.4872 23.3085 21.5922C23.3516 21.6972 23.3738 21.8097 23.3737 21.9234C23.3736 22.037 23.3513 22.1495 23.308 22.2545C23.2647 22.3594 23.2013 22.4548 23.1213 22.5351C23.0414 22.6154 22.9466 22.679 22.8422 22.7224C22.7379 22.7658 22.626 22.7881 22.5131 22.788C22.285 22.788 22.0663 22.6969 21.905 22.5346C21.7438 22.3723 21.6532 22.1522 21.6532 21.9227C21.6532 21.6932 21.7438 21.4731 21.905 21.3108C22.0663 21.1485 22.285 21.0574 22.5131 21.0574H22.5144ZM31.3561 21.0574C31.4691 21.0575 31.5809 21.0799 31.6852 21.1235C31.7895 21.1671 31.8842 21.2309 31.964 21.3113C32.0438 21.3917 32.1071 21.4872 32.1502 21.5922C32.1933 21.6972 32.2155 21.8097 32.2154 21.9234C32.2153 22.037 32.193 22.1495 32.1497 22.2545C32.1064 22.3594 32.043 22.4548 31.9631 22.5351C31.8832 22.6154 31.7883 22.679 31.6839 22.7224C31.5796 22.7658 31.4677 22.7881 31.3548 22.788C31.1267 22.7879 30.9081 22.6965 30.7469 22.5341C30.5858 22.3717 30.4954 22.1515 30.4955 21.922C30.4957 21.6925 30.5865 21.4725 30.7479 21.3104C30.9093 21.1482 31.1281 21.0572 31.3561 21.0574ZM40.1979 21.0574C40.4177 21.0697 40.6245 21.1662 40.7758 21.3271C40.9271 21.488 41.0114 21.7012 41.0114 21.9227C41.0114 22.1442 40.9271 22.3574 40.7758 22.5183C40.6245 22.6792 40.4177 22.7758 40.1979 22.788C39.978 22.7758 39.7713 22.6792 39.62 22.5183C39.4687 22.3574 39.3844 22.1442 39.3844 21.9227C39.3844 21.7012 39.4687 21.488 39.62 21.3271C39.7713 21.1662 39.978 21.0697 40.1979 21.0574ZM26.9373 18.484C27.1646 18.484 27.3827 18.5749 27.5434 18.7367C27.7042 18.8985 27.7945 19.1179 27.7945 19.3467C27.7945 19.5755 27.7042 19.7949 27.5434 19.9567C27.3827 20.1185 27.1646 20.2094 26.9373 20.2094C26.7099 20.2094 26.4918 20.1185 26.3311 19.9567C26.1703 19.7949 26.08 19.5755 26.08 19.3467C26.08 19.1179 26.1703 18.8985 26.3311 18.7367C26.4918 18.5749 26.7099 18.484 26.9373 18.484ZM35.779 18.484C36.0074 18.484 36.2265 18.5753 36.388 18.7379C36.5495 18.9004 36.6402 19.1209 36.6402 19.3507C36.6402 19.5806 36.5495 19.801 36.388 19.9635C36.2265 20.1261 36.0074 20.2174 35.779 20.2174C35.5506 20.2174 35.3315 20.1261 35.17 19.9635C35.0085 19.801 34.9177 19.5806 34.9177 19.3507C34.9177 19.1209 35.0085 18.9004 35.17 18.7379C35.3315 18.5753 35.5506 18.484 35.779 18.484ZM22.5144 15.9067C22.7421 15.9067 22.9605 15.9977 23.1215 16.1598C23.2826 16.3218 23.373 16.5416 23.373 16.7707C23.373 16.9999 23.2826 17.2196 23.1215 17.3816C22.9605 17.5437 22.7421 17.6347 22.5144 17.6347C22.2867 17.6347 22.0683 17.5437 21.9073 17.3816C21.7463 17.2196 21.6558 16.9999 21.6558 16.7707C21.6558 16.5416 21.7463 16.3218 21.9073 16.1598C22.0683 15.9977 22.2867 15.9067 22.5144 15.9067ZM31.3575 15.9067C31.4702 15.9068 31.5818 15.9292 31.686 15.9727C31.7901 16.0162 31.8847 16.0799 31.9644 16.1602C32.0441 16.2405 32.1072 16.3358 32.1503 16.4407C32.1934 16.5455 32.2155 16.6579 32.2154 16.7714C32.2153 16.8848 32.193 16.9972 32.1498 17.102C32.1066 17.2068 32.0432 17.302 31.9635 17.3821C31.8837 17.4623 31.789 17.5259 31.6848 17.5692C31.5806 17.6125 31.4689 17.6348 31.3561 17.6347C31.1284 17.6347 30.91 17.5437 30.749 17.3816C30.588 17.2196 30.4975 16.9999 30.4975 16.7707C30.4975 16.5416 30.588 16.3218 30.749 16.1598C30.91 15.9977 31.1297 15.9067 31.3575 15.9067ZM26.9359 13.3334C27.1637 13.3334 27.382 13.4244 27.5431 13.5864C27.7041 13.7485 27.7945 13.9682 27.7945 14.1974C27.7945 14.4265 27.7041 14.6463 27.5431 14.8083C27.382 14.9703 27.1637 15.0614 26.9359 15.0614C26.7082 15.0614 26.4898 14.9703 26.3288 14.8083C26.1678 14.6463 26.0773 14.4265 26.0773 14.1974C26.0773 13.9682 26.1678 13.7485 26.3288 13.5864C26.4898 13.4244 26.7082 13.3334 26.9359 13.3334Z" fill="#969696"/>
</g>
</svg>
