<svg width="510" height="252" viewBox="0 0 510 252" fill="none" xmlns="http://www.w3.org/2000/svg">
<path opacity="0.06" d="M6.24 8.33L1.62 10.58L0.72 8.42L7.74 5H8.82V26H6.24V8.33ZM15.4289 26.24C14.9089 26.24 14.4789 26.08 14.1389 25.76C13.7989 25.44 13.6289 25.02 13.6289 24.5C13.6289 23.98 13.7989 23.56 14.1389 23.24C14.4789 22.92 14.9089 22.76 15.4289 22.76C15.9489 22.76 16.3789 22.92 16.7189 23.24C17.0589 23.56 17.2289 23.98 17.2289 24.5C17.2289 25.02 17.0589 25.44 16.7189 25.76C16.3789 26.08 15.9489 26.24 15.4289 26.24Z" fill="white"/>
<path opacity="0.06" d="M45.12 11H47.52V26H45.12V11ZM46.32 7.88C45.84 7.88 45.44 7.74 45.12 7.46C44.8 7.16 44.64 6.78 44.64 6.32C44.64 5.86 44.8 5.49 45.12 5.21C45.44 4.91 45.84 4.76 46.32 4.76C46.8 4.76 47.2 4.91 47.52 5.21C47.84 5.49 48 5.86 48 6.32C48 6.78 47.84 7.16 47.52 7.46C47.2 7.74 46.8 7.88 46.32 7.88ZM53.2826 11H55.6826V13.22H55.8026C56.3226 12.52 57.0026 11.92 57.8426 11.42C58.7026 10.9 59.7626 10.64 61.0226 10.64C61.8426 10.64 62.6226 10.77 63.3626 11.03C64.1026 11.29 64.7426 11.68 65.2826 12.2C65.8426 12.72 66.2826 13.37 66.6026 14.15C66.9226 14.91 67.0826 15.8 67.0826 16.82V26H64.6826V17C64.6826 16.24 64.5526 15.6 64.2926 15.08C64.0526 14.54 63.7326 14.11 63.3326 13.79C62.9526 13.45 62.5126 13.2 62.0126 13.04C61.5326 12.88 61.0426 12.8 60.5426 12.8C59.9026 12.8 59.2826 12.93 58.6826 13.19C58.1026 13.43 57.5826 13.79 57.1226 14.27C56.6826 14.73 56.3326 15.3 56.0726 15.98C55.8126 16.66 55.6826 17.44 55.6826 18.32V26H53.2826V11ZM78.4931 26C76.9331 26 75.8031 25.65 75.1031 24.95C74.4031 24.25 74.0531 23.12 74.0531 21.56V13.16H70.1531V11H74.0531V5.9H76.4531V11H84.5531V13.16H76.4531V21.38C76.4531 22.28 76.6231 22.91 76.9631 23.27C77.3231 23.61 77.9531 23.78 78.8531 23.78H84.5531V26H78.4931ZM97.8138 11H100.214V13.22H100.334C100.794 12.52 101.454 11.92 102.314 11.42C103.194 10.9 104.234 10.64 105.434 10.64C106.554 10.64 107.564 10.9 108.464 11.42C109.364 11.92 110.074 12.7 110.594 13.76H110.714C111.414 12.7 112.274 11.92 113.294 11.42C114.334 10.9 115.394 10.64 116.474 10.64C117.254 10.64 117.994 10.77 118.694 11.03C119.394 11.29 120.014 11.68 120.554 12.2C121.094 12.72 121.514 13.37 121.814 14.15C122.134 14.91 122.294 15.8 122.294 16.82V26H119.894V16.94C119.894 16.2 119.774 15.57 119.534 15.05C119.314 14.53 119.014 14.11 118.634 13.79C118.254 13.45 117.824 13.2 117.344 13.04C116.884 12.88 116.414 12.8 115.934 12.8C115.314 12.8 114.724 12.93 114.164 13.19C113.604 13.43 113.104 13.79 112.664 14.27C112.244 14.73 111.904 15.3 111.644 15.98C111.384 16.66 111.254 17.44 111.254 18.32V26H108.854V16.94C108.854 16.2 108.734 15.57 108.494 15.05C108.274 14.53 107.974 14.11 107.594 13.79C107.214 13.45 106.784 13.2 106.304 13.04C105.844 12.88 105.374 12.8 104.894 12.8C104.274 12.8 103.684 12.93 103.124 13.19C102.564 13.43 102.064 13.79 101.624 14.27C101.204 14.73 100.864 15.3 100.604 15.98C100.344 16.66 100.214 17.44 100.214 18.32V26H97.8138V11ZM131.004 26.36C130.504 26.36 129.964 26.31 129.384 26.21C128.824 26.11 128.304 25.92 127.824 25.64C127.344 25.36 126.944 24.96 126.624 24.44C126.304 23.9 126.144 23.2 126.144 22.34C126.144 21.58 126.274 20.95 126.534 20.45C126.794 19.93 127.144 19.5 127.584 19.16C128.024 18.8 128.534 18.51 129.114 18.29C129.694 18.07 130.304 17.88 130.944 17.72L137.004 16.16V15.74C137.004 15.14 136.884 14.65 136.644 14.27C136.424 13.87 136.134 13.56 135.774 13.34C135.434 13.12 135.054 12.97 134.634 12.89C134.214 12.79 133.804 12.74 133.404 12.74C132.404 12.74 131.494 12.98 130.674 13.46C129.854 13.94 129.364 14.66 129.204 15.62H126.744C126.844 14.8 127.074 14.08 127.434 13.46C127.794 12.84 128.264 12.32 128.844 11.9C129.444 11.48 130.124 11.17 130.884 10.97C131.664 10.75 132.504 10.64 133.404 10.64C134.004 10.64 134.644 10.71 135.324 10.85C136.024 10.97 136.674 11.23 137.274 11.63C137.874 12.01 138.364 12.55 138.744 13.25C139.144 13.95 139.344 14.88 139.344 16.04V22.82C139.344 23.18 139.414 23.43 139.554 23.57C139.694 23.71 139.944 23.78 140.304 23.78H141.084V26H139.404C138.764 26 138.274 25.86 137.934 25.58C137.594 25.28 137.364 24.9 137.244 24.44L137.064 23.78H136.944C136.244 24.62 135.384 25.26 134.364 25.7C133.364 26.14 132.244 26.36 131.004 26.36ZM131.304 24.26C132.004 24.26 132.694 24.17 133.374 23.99C134.054 23.79 134.664 23.49 135.204 23.09C135.744 22.67 136.174 22.15 136.494 21.53C136.834 20.89 137.004 20.14 137.004 19.28V18.32L130.944 19.88C130.124 20.1 129.514 20.38 129.114 20.72C128.734 21.04 128.544 21.52 128.544 22.16C128.544 22.64 128.644 23.02 128.844 23.3C129.044 23.58 129.284 23.79 129.564 23.93C129.844 24.07 130.144 24.16 130.464 24.2C130.784 24.24 131.064 24.26 131.304 24.26ZM145.403 11H147.803V26H145.403V11ZM146.603 7.88C146.123 7.88 145.723 7.74 145.403 7.46C145.083 7.16 144.923 6.78 144.923 6.32C144.923 5.86 145.083 5.49 145.403 5.21C145.723 4.91 146.123 4.76 146.603 4.76C147.083 4.76 147.483 4.91 147.803 5.21C148.123 5.49 148.283 5.86 148.283 6.32C148.283 6.78 148.123 7.16 147.803 7.46C147.483 7.74 147.083 7.88 146.603 7.88ZM153.566 11H155.966V13.22H156.086C156.606 12.52 157.286 11.92 158.126 11.42C158.986 10.9 160.046 10.64 161.306 10.64C162.126 10.64 162.906 10.77 163.646 11.03C164.386 11.29 165.026 11.68 165.566 12.2C166.126 12.72 166.566 13.37 166.886 14.15C167.206 14.91 167.366 15.8 167.366 16.82V26H164.966V17C164.966 16.24 164.836 15.6 164.576 15.08C164.336 14.54 164.016 14.11 163.616 13.79C163.236 13.45 162.796 13.2 162.296 13.04C161.816 12.88 161.326 12.8 160.826 12.8C160.186 12.8 159.566 12.93 158.966 13.19C158.386 13.43 157.866 13.79 157.406 14.27C156.966 14.73 156.616 15.3 156.356 15.98C156.096 16.66 155.966 17.44 155.966 18.32V26H153.566V11ZM174.742 30.8C173.802 28.9 173.042 26.88 172.462 24.74C171.902 22.58 171.622 20.3 171.622 17.9C171.622 15.5 171.902 13.23 172.462 11.09C173.042 8.93 173.802 6.9 174.742 5H177.322C176.322 6.9 175.522 8.93 174.922 11.09C174.322 13.23 174.022 15.5 174.022 17.9C174.022 20.3 174.322 22.58 174.922 24.74C175.522 26.88 176.322 28.9 177.322 30.8H174.742ZM182.541 30.8C183.481 28.9 184.231 26.88 184.791 24.74C185.371 22.58 185.661 20.3 185.661 17.9C185.661 15.5 185.371 13.23 184.791 11.09C184.231 8.93 183.481 6.9 182.541 5H179.961C180.961 6.9 181.761 8.93 182.361 11.09C182.961 13.23 183.261 15.5 183.261 17.9C183.261 20.3 182.961 22.58 182.361 24.74C181.761 26.88 180.961 28.9 179.961 30.8H182.541ZM197.473 18.98V16.82H197.833C198.593 16.82 199.183 16.61 199.603 16.19C200.023 15.77 200.233 15.18 200.233 14.42V8.84C200.233 7.48 200.533 6.5 201.133 5.9C201.733 5.3 202.713 5 204.073 5H206.233V7.16H204.433C203.793 7.16 203.333 7.3 203.053 7.58C202.773 7.86 202.633 8.32 202.633 8.96V13.4C202.633 14.6 202.423 15.57 202.003 16.31C201.583 17.05 200.923 17.56 200.023 17.84V17.96C200.923 18.24 201.583 18.75 202.003 19.49C202.423 20.23 202.633 21.2 202.633 22.4V26.84C202.633 27.48 202.773 27.94 203.053 28.22C203.333 28.5 203.793 28.64 204.433 28.64H206.233V30.8H204.073C202.713 30.8 201.733 30.5 201.133 29.9C200.533 29.3 200.233 28.32 200.233 26.96V21.38C200.233 20.62 200.023 20.03 199.603 19.61C199.183 19.19 198.593 18.98 197.833 18.98H197.473Z" fill="white"/>
<path opacity="0.04" d="M101.64 119H104.04V121.22H104.16C104.68 120.52 105.31 119.98 106.05 119.6C106.81 119.2 107.82 119 109.08 119H112.98V121.22H109.08C107.58 121.22 106.36 121.61 105.42 122.39C104.5 123.15 104.04 124.28 104.04 125.78V134H101.64V119ZM122.77 134.36C121.67 134.36 120.65 134.17 119.71 133.79C118.77 133.39 117.95 132.85 117.25 132.17C116.57 131.47 116.03 130.64 115.63 129.68C115.23 128.72 115.03 127.66 115.03 126.5C115.03 125.34 115.23 124.28 115.63 123.32C116.03 122.36 116.58 121.54 117.28 120.86C117.98 120.16 118.8 119.62 119.74 119.24C120.68 118.84 121.69 118.64 122.77 118.64C123.85 118.64 124.85 118.83 125.77 119.21C126.69 119.57 127.48 120.09 128.14 120.77C128.8 121.43 129.32 122.23 129.7 123.17C130.08 124.11 130.27 125.16 130.27 126.32C130.27 126.48 130.27 126.62 130.27 126.74C130.27 126.86 130.26 126.97 130.24 127.07C130.24 127.19 130.23 127.3 130.21 127.4H117.49C117.59 128.12 117.78 128.78 118.06 129.38C118.36 129.98 118.74 130.5 119.2 130.94C119.68 131.36 120.22 131.69 120.82 131.93C121.42 132.15 122.07 132.26 122.77 132.26C123.79 132.26 124.7 132.03 125.5 131.57C126.3 131.09 126.91 130.44 127.33 129.62H129.91C129.63 130.36 129.25 131.02 128.77 131.6C128.29 132.18 127.74 132.68 127.12 133.1C126.5 133.5 125.82 133.81 125.08 134.03C124.36 134.25 123.59 134.36 122.77 134.36ZM127.81 125.3C127.59 123.92 127.03 122.82 126.13 122C125.25 121.16 124.13 120.74 122.77 120.74C122.09 120.74 121.46 120.85 120.88 121.07C120.3 121.29 119.78 121.6 119.32 122C118.86 122.38 118.47 122.85 118.15 123.41C117.85 123.97 117.64 124.6 117.52 125.3H127.81ZM140.649 134C139.089 134 137.959 133.65 137.259 132.95C136.559 132.25 136.209 131.12 136.209 129.56V121.16H132.309V119H136.209V113.9H138.609V119H146.709V121.16H138.609V129.38C138.609 130.28 138.779 130.91 139.119 131.27C139.479 131.61 140.109 131.78 141.009 131.78H146.709V134H140.649ZM164.303 134H161.903V131.78H161.783C161.263 132.48 160.573 133.09 159.713 133.61C158.873 134.11 157.823 134.36 156.563 134.36C155.743 134.36 154.963 134.23 154.223 133.97C153.483 133.71 152.833 133.32 152.273 132.8C151.733 132.28 151.303 131.64 150.983 130.88C150.663 130.1 150.503 129.2 150.503 128.18V119H152.903V128C152.903 128.76 153.023 129.41 153.263 129.95C153.523 130.47 153.843 130.9 154.223 131.24C154.623 131.56 155.063 131.8 155.543 131.96C156.043 132.12 156.543 132.2 157.043 132.2C157.683 132.2 158.293 132.08 158.873 131.84C159.473 131.58 159.993 131.22 160.433 130.76C160.893 130.28 161.253 129.7 161.513 129.02C161.773 128.34 161.903 127.56 161.903 126.68V119H164.303V134ZM169.579 119H171.979V121.22H172.099C172.619 120.52 173.249 119.98 173.989 119.6C174.749 119.2 175.759 119 177.019 119H180.919V121.22H177.019C175.519 121.22 174.299 121.61 173.359 122.39C172.439 123.15 171.979 124.28 171.979 125.78V134H169.579V119ZM184.755 119H187.155V121.22H187.275C187.795 120.52 188.475 119.92 189.315 119.42C190.175 118.9 191.235 118.64 192.495 118.64C193.315 118.64 194.095 118.77 194.835 119.03C195.575 119.29 196.215 119.68 196.755 120.2C197.315 120.72 197.755 121.37 198.075 122.15C198.395 122.91 198.555 123.8 198.555 124.82V134H196.155V125C196.155 124.24 196.025 123.6 195.765 123.08C195.525 122.54 195.205 122.11 194.805 121.79C194.425 121.45 193.985 121.2 193.485 121.04C193.005 120.88 192.515 120.8 192.015 120.8C191.375 120.8 190.755 120.93 190.155 121.19C189.575 121.43 189.055 121.79 188.595 122.27C188.155 122.73 187.805 123.3 187.545 123.98C187.285 124.66 187.155 125.44 187.155 126.32V134H184.755V119ZM220.626 134.36C219.386 134.36 218.236 134.11 217.176 133.61C216.136 133.11 215.236 132.39 214.476 131.45C213.716 130.51 213.116 129.37 212.676 128.03C212.256 126.69 212.046 125.18 212.046 123.5C212.046 121.82 212.256 120.31 212.676 118.97C213.116 117.63 213.716 116.49 214.476 115.55C215.236 114.61 216.136 113.89 217.176 113.39C218.236 112.89 219.386 112.64 220.626 112.64C221.866 112.64 223.006 112.89 224.046 113.39C225.106 113.89 226.016 114.61 226.776 115.55C227.536 116.49 228.126 117.63 228.546 118.97C228.986 120.31 229.206 121.82 229.206 123.5C229.206 125.18 228.986 126.69 228.546 128.03C228.126 129.37 227.536 130.51 226.776 131.45C226.016 132.39 225.106 133.11 224.046 133.61C223.006 134.11 221.866 134.36 220.626 134.36ZM220.626 132.02C221.506 132.02 222.306 131.83 223.026 131.45C223.766 131.07 224.396 130.52 224.916 129.8C225.456 129.06 225.876 128.16 226.176 127.1C226.476 126.04 226.626 124.84 226.626 123.5C226.626 122.14 226.476 120.94 226.176 119.9C225.876 118.84 225.456 117.95 224.916 117.23C224.396 116.49 223.766 115.93 223.026 115.55C222.306 115.17 221.506 114.98 220.626 114.98C219.766 114.98 218.966 115.17 218.226 115.55C217.486 115.93 216.846 116.49 216.306 117.23C215.786 117.95 215.376 118.84 215.076 119.9C214.776 120.94 214.626 122.14 214.626 123.5C214.626 124.84 214.776 126.04 215.076 127.1C215.376 128.16 215.786 129.06 216.306 129.8C216.846 130.52 217.486 131.07 218.226 131.45C218.966 131.83 219.766 132.02 220.626 132.02Z" fill="white"/>
<path opacity="0.03" d="M51.48 180.98V178.82H51.12C50.36 178.82 49.77 178.61 49.35 178.19C48.93 177.77 48.72 177.18 48.72 176.42V170.84C48.72 169.48 48.42 168.5 47.82 167.9C47.22 167.3 46.24 167 44.88 167H42.72V169.16H44.52C45.16 169.16 45.62 169.3 45.9 169.58C46.18 169.86 46.32 170.32 46.32 170.96V175.4C46.32 176.6 46.53 177.57 46.95 178.31C47.37 179.05 48.03 179.56 48.93 179.84V179.96C48.03 180.24 47.37 180.75 46.95 181.49C46.53 182.23 46.32 183.2 46.32 184.4V188.84C46.32 189.48 46.18 189.94 45.9 190.22C45.62 190.5 45.16 190.64 44.52 190.64H42.72V192.8H44.88C46.24 192.8 47.22 192.5 47.82 191.9C48.42 191.3 48.72 190.32 48.72 188.96V183.38C48.72 182.62 48.93 182.03 49.35 181.61C49.77 181.19 50.36 180.98 51.12 180.98H51.48Z" fill="white"/>
<path opacity="0.05" d="M107.4 80.36C106.54 80.36 105.69 80.28 104.85 80.12C104.03 79.96 103.28 79.69 102.6 79.31C101.92 78.91 101.36 78.38 100.92 77.72C100.48 77.06 100.22 76.24 100.14 75.26H102.6C102.68 75.82 102.88 76.3 103.2 76.7C103.52 77.08 103.9 77.39 104.34 77.63C104.8 77.85 105.3 78.01 105.84 78.11C106.38 78.21 106.9 78.26 107.4 78.26C107.8 78.26 108.23 78.23 108.69 78.17C109.15 78.09 109.57 77.96 109.95 77.78C110.35 77.6 110.68 77.35 110.94 77.03C111.22 76.71 111.36 76.3 111.36 75.8C111.36 75.08 111.09 74.57 110.55 74.27C110.03 73.95 109.37 73.72 108.57 73.58C107.77 73.42 106.91 73.29 105.99 73.19C105.07 73.09 104.21 72.91 103.41 72.65C102.61 72.37 101.94 71.95 101.4 71.39C100.88 70.83 100.62 70.02 100.62 68.96C100.62 68.1 100.81 67.4 101.19 66.86C101.59 66.3 102.09 65.86 102.69 65.54C103.31 65.2 103.99 64.97 104.73 64.85C105.49 64.71 106.22 64.64 106.92 64.64C107.62 64.64 108.34 64.71 109.08 64.85C109.84 64.97 110.53 65.21 111.15 65.57C111.79 65.91 112.32 66.38 112.74 66.98C113.16 67.56 113.4 68.32 113.46 69.26H111C110.92 68.74 110.74 68.32 110.46 68C110.18 67.68 109.84 67.43 109.44 67.25C109.06 67.05 108.64 66.92 108.18 66.86C107.74 66.78 107.32 66.74 106.92 66.74C106.58 66.74 106.18 66.77 105.72 66.83C105.28 66.89 104.86 67 104.46 67.16C104.06 67.32 103.72 67.55 103.44 67.85C103.16 68.13 103.02 68.5 103.02 68.96C103.02 69.44 103.17 69.82 103.47 70.1C103.79 70.36 104.2 70.57 104.7 70.73C105.2 70.87 105.77 70.98 106.41 71.06C107.05 71.14 107.71 71.23 108.39 71.33C109.07 71.43 109.73 71.56 110.37 71.72C111.01 71.88 111.58 72.13 112.08 72.47C112.58 72.79 112.98 73.22 113.28 73.76C113.6 74.28 113.76 74.96 113.76 75.8C113.76 76.72 113.57 77.48 113.19 78.08C112.81 78.66 112.31 79.12 111.69 79.46C111.09 79.8 110.41 80.03 109.65 80.15C108.91 80.29 108.16 80.36 107.4 80.36ZM124.155 80C122.595 80 121.465 79.65 120.765 78.95C120.065 78.25 119.715 77.12 119.715 75.56V67.16H115.815V65H119.715V59.9H122.115V65H130.215V67.16H122.115V75.38C122.115 76.28 122.285 76.91 122.625 77.27C122.985 77.61 123.615 77.78 124.515 77.78H130.215V80H124.155ZM140.429 80.36C141.689 80.36 142.769 80.12 143.669 79.64C144.589 79.16 145.349 78.54 145.949 77.78H146.069V80H148.469V59H146.069V67.22H145.949C145.349 66.46 144.589 65.84 143.669 65.36C142.769 64.88 141.689 64.64 140.429 64.64C139.349 64.64 138.349 64.84 137.429 65.24C136.529 65.62 135.749 66.16 135.089 66.86C134.429 67.54 133.909 68.36 133.529 69.32C133.169 70.28 132.989 71.34 132.989 72.5C132.989 73.66 133.169 74.72 133.529 75.68C133.909 76.64 134.429 77.47 135.089 78.17C135.749 78.85 136.529 79.39 137.429 79.79C138.349 80.17 139.349 80.36 140.429 80.36ZM140.729 78.2C139.949 78.2 139.229 78.06 138.569 77.78C137.929 77.5 137.369 77.11 136.889 76.61C136.409 76.11 136.039 75.51 135.779 74.81C135.519 74.11 135.389 73.34 135.389 72.5C135.389 71.66 135.519 70.89 135.779 70.19C136.039 69.49 136.409 68.89 136.889 68.39C137.369 67.89 137.929 67.5 138.569 67.22C139.229 66.94 139.949 66.8 140.729 66.8C141.509 66.8 142.229 66.94 142.889 67.22C143.549 67.5 144.119 67.89 144.599 68.39C145.079 68.89 145.449 69.49 145.709 70.19C145.989 70.89 146.129 71.66 146.129 72.5C146.129 73.34 145.989 74.11 145.709 74.81C145.449 75.51 145.079 76.11 144.599 76.61C144.119 77.11 143.549 77.5 142.889 77.78C142.229 78.06 141.509 78.2 140.729 78.2ZM154.419 80.24C153.899 80.24 153.469 80.08 153.129 79.76C152.789 79.44 152.619 79.02 152.619 78.5C152.619 77.98 152.789 77.56 153.129 77.24C153.469 76.92 153.899 76.76 154.419 76.76C154.939 76.76 155.369 76.92 155.709 77.24C156.049 77.56 156.219 77.98 156.219 78.5C156.219 79.02 156.049 79.44 155.709 79.76C155.369 80.08 154.939 80.24 154.419 80.24ZM154.419 68.24C153.899 68.24 153.469 68.08 153.129 67.76C152.789 67.44 152.619 67.02 152.619 66.5C152.619 65.98 152.789 65.56 153.129 65.24C153.469 64.92 153.899 64.76 154.419 64.76C154.939 64.76 155.369 64.92 155.709 65.24C156.049 65.56 156.219 65.98 156.219 66.5C156.219 67.02 156.049 67.44 155.709 67.76C155.369 68.08 154.939 68.24 154.419 68.24ZM161.011 80.24C160.491 80.24 160.061 80.08 159.721 79.76C159.381 79.44 159.211 79.02 159.211 78.5C159.211 77.98 159.381 77.56 159.721 77.24C160.061 76.92 160.491 76.76 161.011 76.76C161.531 76.76 161.961 76.92 162.301 77.24C162.641 77.56 162.811 77.98 162.811 78.5C162.811 79.02 162.641 79.44 162.301 79.76C161.961 80.08 161.531 80.24 161.011 80.24ZM161.011 68.24C160.491 68.24 160.061 68.08 159.721 67.76C159.381 67.44 159.211 67.02 159.211 66.5C159.211 65.98 159.381 65.56 159.721 65.24C160.061 64.92 160.491 64.76 161.011 64.76C161.531 64.76 161.961 64.92 162.301 65.24C162.641 65.56 162.811 65.98 162.811 66.5C162.811 67.02 162.641 67.44 162.301 67.76C161.961 68.08 161.531 68.24 161.011 68.24ZM173.423 80.36C172.323 80.36 171.303 80.17 170.363 79.79C169.423 79.39 168.603 78.85 167.903 78.17C167.223 77.47 166.693 76.64 166.313 75.68C165.933 74.72 165.743 73.66 165.743 72.5C165.743 71.34 165.933 70.28 166.313 69.32C166.693 68.36 167.223 67.54 167.903 66.86C168.603 66.16 169.423 65.62 170.363 65.24C171.303 64.84 172.323 64.64 173.423 64.64C174.343 64.64 175.203 64.78 176.003 65.06C176.803 65.32 177.523 65.7 178.163 66.2C178.803 66.7 179.353 67.31 179.813 68.03C180.273 68.73 180.603 69.52 180.803 70.4H178.343C177.943 69.26 177.323 68.38 176.483 67.76C175.643 67.12 174.623 66.8 173.423 66.8C172.623 66.8 171.893 66.94 171.233 67.22C170.593 67.5 170.043 67.89 169.583 68.39C169.123 68.89 168.763 69.49 168.503 70.19C168.263 70.89 168.143 71.66 168.143 72.5C168.143 73.34 168.263 74.11 168.503 74.81C168.763 75.51 169.123 76.11 169.583 76.61C170.043 77.11 170.593 77.5 171.233 77.78C171.893 78.06 172.623 78.2 173.423 78.2C174.623 78.2 175.643 77.89 176.483 77.27C177.323 76.63 177.943 75.74 178.343 74.6H180.803C180.603 75.48 180.273 76.28 179.813 77C179.353 77.7 178.803 78.3 178.163 78.8C177.523 79.3 176.803 79.69 176.003 79.97C175.203 80.23 174.343 80.36 173.423 80.36ZM191.443 80.36C190.343 80.36 189.313 80.17 188.353 79.79C187.413 79.39 186.593 78.85 185.893 78.17C185.193 77.47 184.643 76.64 184.243 75.68C183.843 74.72 183.643 73.66 183.643 72.5C183.643 71.34 183.843 70.28 184.243 69.32C184.643 68.36 185.193 67.54 185.893 66.86C186.593 66.16 187.413 65.62 188.353 65.24C189.313 64.84 190.343 64.64 191.443 64.64C192.543 64.64 193.563 64.84 194.503 65.24C195.463 65.62 196.293 66.16 196.993 66.86C197.693 67.54 198.243 68.36 198.643 69.32C199.043 70.28 199.243 71.34 199.243 72.5C199.243 73.66 199.043 74.72 198.643 75.68C198.243 76.64 197.693 77.47 196.993 78.17C196.293 78.85 195.463 79.39 194.503 79.79C193.563 80.17 192.543 80.36 191.443 80.36ZM191.443 78.2C192.223 78.2 192.943 78.06 193.603 77.78C194.263 77.5 194.833 77.11 195.313 76.61C195.793 76.11 196.163 75.51 196.423 74.81C196.703 74.11 196.843 73.34 196.843 72.5C196.843 71.66 196.703 70.89 196.423 70.19C196.163 69.49 195.793 68.89 195.313 68.39C194.833 67.89 194.263 67.5 193.603 67.22C192.943 66.94 192.223 66.8 191.443 66.8C190.663 66.8 189.943 66.94 189.283 67.22C188.623 67.5 188.053 67.89 187.573 68.39C187.093 68.89 186.713 69.49 186.433 70.19C186.173 70.89 186.043 71.66 186.043 72.5C186.043 73.34 186.173 74.11 186.433 74.81C186.713 75.51 187.093 76.11 187.573 76.61C188.053 77.11 188.623 77.5 189.283 77.78C189.943 78.06 190.663 78.2 191.443 78.2ZM216.949 80H214.549V77.78H214.429C213.909 78.48 213.219 79.09 212.359 79.61C211.519 80.11 210.469 80.36 209.209 80.36C208.389 80.36 207.609 80.23 206.869 79.97C206.129 79.71 205.479 79.32 204.919 78.8C204.379 78.28 203.949 77.64 203.629 76.88C203.309 76.1 203.149 75.2 203.149 74.18V65H205.549V74C205.549 74.76 205.669 75.41 205.909 75.95C206.169 76.47 206.489 76.9 206.869 77.24C207.269 77.56 207.709 77.8 208.189 77.96C208.689 78.12 209.189 78.2 209.689 78.2C210.329 78.2 210.939 78.08 211.519 77.84C212.119 77.58 212.639 77.22 213.079 76.76C213.539 76.28 213.899 75.7 214.159 75.02C214.419 74.34 214.549 73.56 214.549 72.68V65H216.949V80ZM229.126 80C227.566 80 226.436 79.65 225.736 78.95C225.036 78.25 224.686 77.12 224.686 75.56V67.16H220.786V65H224.686V59.9H227.086V65H235.186V67.16H227.086V75.38C227.086 76.28 227.256 76.91 227.596 77.27C227.956 77.61 228.586 77.78 229.486 77.78H235.186V80H229.126ZM247.007 70.16L261.167 65.06V67.34L250.847 70.94V71.06L261.167 74.66V76.94L247.007 71.84V70.16ZM264.468 70.16L278.628 65.06V67.34L268.308 70.94V71.06L278.628 74.66V76.94L264.468 71.84V70.16ZM293.983 65.6H291.643L291.523 59H294.103L293.983 65.6ZM298.783 65.6H296.443L296.323 59H298.903L298.783 65.6ZM303.949 59H306.529V67.88H318.829V59H321.409V80H318.829V70.22H306.529V80H303.949V59ZM333.825 80.36C332.725 80.36 331.705 80.17 330.765 79.79C329.825 79.39 329.005 78.85 328.305 78.17C327.625 77.47 327.085 76.64 326.685 75.68C326.285 74.72 326.085 73.66 326.085 72.5C326.085 71.34 326.285 70.28 326.685 69.32C327.085 68.36 327.635 67.54 328.335 66.86C329.035 66.16 329.855 65.62 330.795 65.24C331.735 64.84 332.745 64.64 333.825 64.64C334.905 64.64 335.905 64.83 336.825 65.21C337.745 65.57 338.535 66.09 339.195 66.77C339.855 67.43 340.375 68.23 340.755 69.17C341.135 70.11 341.325 71.16 341.325 72.32C341.325 72.48 341.325 72.62 341.325 72.74C341.325 72.86 341.315 72.97 341.295 73.07C341.295 73.19 341.285 73.3 341.265 73.4H328.545C328.645 74.12 328.835 74.78 329.115 75.38C329.415 75.98 329.795 76.5 330.255 76.94C330.735 77.36 331.275 77.69 331.875 77.93C332.475 78.15 333.125 78.26 333.825 78.26C334.845 78.26 335.755 78.03 336.555 77.57C337.355 77.09 337.965 76.44 338.385 75.62H340.965C340.685 76.36 340.305 77.02 339.825 77.6C339.345 78.18 338.795 78.68 338.175 79.1C337.555 79.5 336.875 79.81 336.135 80.03C335.415 80.25 334.645 80.36 333.825 80.36ZM338.865 71.3C338.645 69.92 338.085 68.82 337.185 68C336.305 67.16 335.185 66.74 333.825 66.74C333.145 66.74 332.515 66.85 331.935 67.07C331.355 67.29 330.835 67.6 330.375 68C329.915 68.38 329.525 68.85 329.205 69.41C328.905 69.97 328.695 70.6 328.575 71.3H338.865ZM349.05 80C347.69 80 346.71 79.7 346.11 79.1C345.51 78.5 345.21 77.52 345.21 76.16V59H347.61V75.98C347.61 76.62 347.75 77.08 348.03 77.36C348.31 77.64 348.77 77.78 349.41 77.78H350.73V80H349.05ZM358.22 80C356.86 80 355.88 79.7 355.28 79.1C354.68 78.5 354.38 77.52 354.38 76.16V59H356.78V75.98C356.78 76.62 356.92 77.08 357.2 77.36C357.48 77.64 357.94 77.78 358.58 77.78H359.9V80H358.22ZM370.037 80.36C368.937 80.36 367.907 80.17 366.947 79.79C366.007 79.39 365.187 78.85 364.487 78.17C363.787 77.47 363.237 76.64 362.837 75.68C362.437 74.72 362.237 73.66 362.237 72.5C362.237 71.34 362.437 70.28 362.837 69.32C363.237 68.36 363.787 67.54 364.487 66.86C365.187 66.16 366.007 65.62 366.947 65.24C367.907 64.84 368.937 64.64 370.037 64.64C371.137 64.64 372.157 64.84 373.097 65.24C374.057 65.62 374.887 66.16 375.587 66.86C376.287 67.54 376.837 68.36 377.237 69.32C377.637 70.28 377.837 71.34 377.837 72.5C377.837 73.66 377.637 74.72 377.237 75.68C376.837 76.64 376.287 77.47 375.587 78.17C374.887 78.85 374.057 79.39 373.097 79.79C372.157 80.17 371.137 80.36 370.037 80.36ZM370.037 78.2C370.817 78.2 371.537 78.06 372.197 77.78C372.857 77.5 373.427 77.11 373.907 76.61C374.387 76.11 374.757 75.51 375.017 74.81C375.297 74.11 375.437 73.34 375.437 72.5C375.437 71.66 375.297 70.89 375.017 70.19C374.757 69.49 374.387 68.89 373.907 68.39C373.427 67.89 372.857 67.5 372.197 67.22C371.537 66.94 370.817 66.8 370.037 66.8C369.257 66.8 368.537 66.94 367.877 67.22C367.217 67.5 366.647 67.89 366.167 68.39C365.687 68.89 365.307 69.49 365.027 70.19C364.767 70.89 364.637 71.66 364.637 72.5C364.637 73.34 364.767 74.11 365.027 74.81C365.307 75.51 365.687 76.11 366.167 76.61C366.647 77.11 367.217 77.5 367.877 77.78C368.537 78.06 369.257 78.2 370.037 78.2ZM415.577 80H412.817L406.337 62.54H406.217L399.737 80H396.977L389.177 59H391.877L398.297 76.46H398.417L404.897 59H407.657L414.137 76.46H414.257L420.677 59H423.377L415.577 80ZM432.322 80.36C431.222 80.36 430.192 80.17 429.232 79.79C428.292 79.39 427.472 78.85 426.772 78.17C426.072 77.47 425.522 76.64 425.122 75.68C424.722 74.72 424.522 73.66 424.522 72.5C424.522 71.34 424.722 70.28 425.122 69.32C425.522 68.36 426.072 67.54 426.772 66.86C427.472 66.16 428.292 65.62 429.232 65.24C430.192 64.84 431.222 64.64 432.322 64.64C433.422 64.64 434.442 64.84 435.382 65.24C436.342 65.62 437.172 66.16 437.872 66.86C438.572 67.54 439.122 68.36 439.522 69.32C439.922 70.28 440.122 71.34 440.122 72.5C440.122 73.66 439.922 74.72 439.522 75.68C439.122 76.64 438.572 77.47 437.872 78.17C437.172 78.85 436.342 79.39 435.382 79.79C434.442 80.17 433.422 80.36 432.322 80.36ZM432.322 78.2C433.102 78.2 433.822 78.06 434.482 77.78C435.142 77.5 435.712 77.11 436.192 76.61C436.672 76.11 437.042 75.51 437.302 74.81C437.582 74.11 437.722 73.34 437.722 72.5C437.722 71.66 437.582 70.89 437.302 70.19C437.042 69.49 436.672 68.89 436.192 68.39C435.712 67.89 435.142 67.5 434.482 67.22C433.822 66.94 433.102 66.8 432.322 66.8C431.542 66.8 430.822 66.94 430.162 67.22C429.502 67.5 428.932 67.89 428.452 68.39C427.972 68.89 427.592 69.49 427.312 70.19C427.052 70.89 426.922 71.66 426.922 72.5C426.922 73.34 427.052 74.11 427.312 74.81C427.592 75.51 427.972 76.11 428.452 76.61C428.932 77.11 429.502 77.5 430.162 77.78C430.822 78.06 431.542 78.2 432.322 78.2ZM444.208 65H446.608V67.22H446.728C447.248 66.52 447.878 65.98 448.618 65.6C449.378 65.2 450.388 65 451.648 65H455.548V67.22H451.648C450.148 67.22 448.928 67.61 447.988 68.39C447.068 69.15 446.608 70.28 446.608 71.78V80H444.208V65ZM463.044 80C461.684 80 460.704 79.7 460.104 79.1C459.504 78.5 459.204 77.52 459.204 76.16V59H461.604V75.98C461.604 76.62 461.744 77.08 462.024 77.36C462.304 77.64 462.764 77.78 463.404 77.78H464.724V80H463.044ZM474.501 80.36C475.761 80.36 476.841 80.12 477.741 79.64C478.661 79.16 479.421 78.54 480.021 77.78H480.141V80H482.541V59H480.141V67.22H480.021C479.421 66.46 478.661 65.84 477.741 65.36C476.841 64.88 475.761 64.64 474.501 64.64C473.421 64.64 472.421 64.84 471.501 65.24C470.601 65.62 469.821 66.16 469.161 66.86C468.501 67.54 467.981 68.36 467.601 69.32C467.241 70.28 467.061 71.34 467.061 72.5C467.061 73.66 467.241 74.72 467.601 75.68C467.981 76.64 468.501 77.47 469.161 78.17C469.821 78.85 470.601 79.39 471.501 79.79C472.421 80.17 473.421 80.36 474.501 80.36ZM474.801 78.2C474.021 78.2 473.301 78.06 472.641 77.78C472.001 77.5 471.441 77.11 470.961 76.61C470.481 76.11 470.111 75.51 469.851 74.81C469.591 74.11 469.461 73.34 469.461 72.5C469.461 71.66 469.591 70.89 469.851 70.19C470.111 69.49 470.481 68.89 470.961 68.39C471.441 67.89 472.001 67.5 472.641 67.22C473.301 66.94 474.021 66.8 474.801 66.8C475.581 66.8 476.301 66.94 476.961 67.22C477.621 67.5 478.191 67.89 478.671 68.39C479.151 68.89 479.521 69.49 479.781 70.19C480.061 70.89 480.201 71.66 480.201 72.5C480.201 73.34 480.061 74.11 479.781 74.81C479.521 75.51 479.151 76.11 478.671 76.61C478.191 77.11 477.621 77.5 476.961 77.78C476.301 78.06 475.581 78.2 474.801 78.2ZM489.961 74.6H487.621L487.501 59H490.081L489.961 74.6ZM488.791 80.24C488.271 80.24 487.841 80.08 487.501 79.76C487.161 79.44 486.991 79.02 486.991 78.5C486.991 77.98 487.161 77.56 487.501 77.24C487.841 76.92 488.271 76.76 488.791 76.76C489.311 76.76 489.741 76.92 490.081 77.24C490.421 77.56 490.591 77.98 490.591 78.5C490.591 79.02 490.421 79.44 490.081 79.76C489.741 80.08 489.311 80.24 488.791 80.24ZM496.658 65.6H494.318L494.198 59H496.778L496.658 65.6ZM501.458 65.6H499.118L498.998 59H501.578L501.458 65.6ZM506.415 80.21C505.955 80.15 505.585 79.97 505.305 79.67C505.025 79.35 504.885 78.96 504.885 78.5C504.885 77.98 505.035 77.56 505.335 77.24C505.655 76.92 506.105 76.76 506.685 76.76C507.265 76.76 507.705 76.93 508.005 77.27C508.325 77.59 508.485 78.04 508.485 78.62C508.485 78.92 508.445 79.22 508.365 79.52C508.305 79.82 508.245 80.06 508.185 80.24L507.165 83.24H505.365L506.415 80.21ZM506.685 68.24C506.165 68.24 505.735 68.08 505.395 67.76C505.055 67.44 504.885 67.02 504.885 66.5C504.885 65.98 505.055 65.56 505.395 65.24C505.735 64.92 506.165 64.76 506.685 64.76C507.205 64.76 507.635 64.92 507.975 65.24C508.315 65.56 508.485 65.98 508.485 66.5C508.485 67.02 508.315 67.44 507.975 67.76C507.635 68.08 507.205 68.24 506.685 68.24Z" fill="white"/>
<path opacity="0.05" d="M1.5 77.9L10.98 68.96C11.32 68.64 11.65 68.31 11.97 67.97C12.31 67.63 12.61 67.27 12.87 66.89C13.15 66.49 13.37 66.08 13.53 65.66C13.71 65.24 13.8 64.8 13.8 64.34C13.8 63.76 13.66 63.26 13.38 62.84C13.12 62.4 12.77 62.04 12.33 61.76C11.89 61.48 11.39 61.27 10.83 61.13C10.29 60.99 9.74 60.92 9.18 60.92C8.56 60.92 7.95 61.01 7.35 61.19C6.75 61.35 6.22 61.61 5.76 61.97C5.3 62.33 4.92 62.79 4.62 63.35C4.34 63.89 4.18 64.54 4.14 65.3H1.5C1.58 64.02 1.85 62.96 2.31 62.12C2.79 61.26 3.39 60.58 4.11 60.08C4.83 59.56 5.63 59.19 6.51 58.97C7.39 58.75 8.28 58.64 9.18 58.64C10.2 58.64 11.15 58.76 12.03 59C12.91 59.24 13.67 59.6 14.31 60.08C14.95 60.56 15.45 61.16 15.81 61.88C16.19 62.58 16.38 63.4 16.38 64.34C16.38 65.02 16.28 65.66 16.08 66.26C15.88 66.84 15.6 67.39 15.24 67.91C14.88 68.43 14.46 68.94 13.98 69.44C13.5 69.94 12.98 70.46 12.42 71L5.46 77.54V77.66H16.38V80H1.5V77.9ZM21.552 80.24C21.032 80.24 20.602 80.08 20.262 79.76C19.922 79.44 19.752 79.02 19.752 78.5C19.752 77.98 19.922 77.56 20.262 77.24C20.602 76.92 21.032 76.76 21.552 76.76C22.072 76.76 22.502 76.92 22.842 77.24C23.182 77.56 23.352 77.98 23.352 78.5C23.352 79.02 23.182 79.44 22.842 79.76C22.502 80.08 22.072 80.24 21.552 80.24Z" fill="white"/>
<path opacity="0.04" d="M9.6 134.36C8.5 134.36 7.47 134.24 6.51 134C5.57 133.74 4.74 133.36 4.02 132.86C3.3 132.34 2.72 131.68 2.28 130.88C1.84 130.06 1.58 129.1 1.5 128H4.08C4.12 128.68 4.3 129.28 4.62 129.8C4.96 130.32 5.38 130.75 5.88 131.09C6.4 131.41 6.98 131.66 7.62 131.84C8.26 132 8.92 132.08 9.6 132.08C10.22 132.08 10.83 132.01 11.43 131.87C12.05 131.73 12.6 131.5 13.08 131.18C13.56 130.86 13.95 130.45 14.25 129.95C14.55 129.43 14.7 128.8 14.7 128.06C14.7 127.54 14.61 127.05 14.43 126.59C14.27 126.11 14 125.7 13.62 125.36C13.24 125 12.75 124.72 12.15 124.52C11.55 124.32 10.82 124.22 9.96 124.22H6.84V121.88H9.84C10.64 121.88 11.32 121.8 11.88 121.64C12.44 121.46 12.9 121.22 13.26 120.92C13.62 120.62 13.88 120.27 14.04 119.87C14.2 119.45 14.28 119 14.28 118.52C14.28 117.8 14.13 117.21 13.83 116.75C13.53 116.27 13.14 115.9 12.66 115.64C12.2 115.36 11.68 115.17 11.1 115.07C10.54 114.97 10 114.92 9.48 114.92C7.88 114.92 6.63 115.28 5.73 116C4.85 116.72 4.36 117.62 4.26 118.7H1.68C1.76 117.66 2 116.76 2.4 116C2.82 115.24 3.37 114.61 4.05 114.11C4.75 113.61 5.56 113.24 6.48 113C7.4 112.76 8.4 112.64 9.48 112.64C10.52 112.64 11.49 112.75 12.39 112.97C13.29 113.19 14.07 113.53 14.73 113.99C15.39 114.45 15.91 115.04 16.29 115.76C16.67 116.46 16.86 117.3 16.86 118.28C16.86 119.46 16.6 120.41 16.08 121.13C15.58 121.83 14.94 122.38 14.16 122.78V122.9C15.22 123.38 16 124.08 16.5 125C17.02 125.92 17.28 126.98 17.28 128.18C17.28 129.28 17.08 130.22 16.68 131C16.28 131.78 15.73 132.42 15.03 132.92C14.35 133.42 13.54 133.78 12.6 134C11.66 134.24 10.66 134.36 9.6 134.36ZM22.8996 134.24C22.3796 134.24 21.9496 134.08 21.6096 133.76C21.2696 133.44 21.0996 133.02 21.0996 132.5C21.0996 131.98 21.2696 131.56 21.6096 131.24C21.9496 130.92 22.3796 130.76 22.8996 130.76C23.4196 130.76 23.8496 130.92 24.1896 131.24C24.5296 131.56 24.6996 131.98 24.6996 132.5C24.6996 133.02 24.5296 133.44 24.1896 133.76C23.8496 134.08 23.4196 134.24 22.8996 134.24Z" fill="white"/>
<path opacity="0.03" d="M12.6 182.66H1.44V180.8L11.94 167H15.18V180.32H18.06V182.66H15.18V188H12.6V182.66ZM12.6 180.32V170.12H12.48L4.8 180.2V180.32H12.6ZM22.7824 188.24C22.2624 188.24 21.8324 188.08 21.4924 187.76C21.1524 187.44 20.9824 187.02 20.9824 186.5C20.9824 185.98 21.1524 185.56 21.4924 185.24C21.8324 184.92 22.2624 184.76 22.7824 184.76C23.3024 184.76 23.7324 184.92 24.0724 185.24C24.4124 185.56 24.5824 185.98 24.5824 186.5C24.5824 187.02 24.4124 187.44 24.0724 187.76C23.7324 188.08 23.3024 188.24 22.7824 188.24Z" fill="white"/>
<path opacity="0.02" d="M9.96 242.36C8.94 242.36 7.98 242.23 7.08 241.97C6.18 241.69 5.38 241.3 4.68 240.8C3.98 240.28 3.4 239.66 2.94 238.94C2.5 238.22 2.22 237.4 2.1 236.48H4.74C5.02 237.56 5.61 238.44 6.51 239.12C7.43 239.8 8.58 240.14 9.96 240.14C10.76 240.14 11.49 240.02 12.15 239.78C12.83 239.54 13.41 239.21 13.89 238.79C14.39 238.35 14.78 237.82 15.06 237.2C15.34 236.58 15.48 235.9 15.48 235.16C15.48 234.4 15.34 233.72 15.06 233.12C14.8 232.5 14.43 231.98 13.95 231.56C13.47 231.12 12.9 230.78 12.24 230.54C11.6 230.3 10.9 230.18 10.14 230.18C9.06 230.18 8.07 230.43 7.17 230.93C6.29 231.41 5.6 232.16 5.1 233.18H2.46L3.96 221H16.86V223.34H6.24L5.46 229.76H5.58C6.28 229.16 7.03 228.71 7.83 228.41C8.63 228.11 9.54 227.96 10.56 227.96C11.56 227.96 12.51 228.13 13.41 228.47C14.33 228.81 15.13 229.3 15.81 229.94C16.51 230.56 17.06 231.31 17.46 232.19C17.86 233.07 18.06 234.06 18.06 235.16C18.06 236.26 17.85 237.25 17.43 238.13C17.01 239.01 16.44 239.77 15.72 240.41C15 241.03 14.14 241.51 13.14 241.85C12.16 242.19 11.1 242.36 9.96 242.36ZM22.8703 242.24C22.3503 242.24 21.9203 242.08 21.5803 241.76C21.2403 241.44 21.0703 241.02 21.0703 240.5C21.0703 239.98 21.2403 239.56 21.5803 239.24C21.9203 238.92 22.3503 238.76 22.8703 238.76C23.3903 238.76 23.8203 238.92 24.1603 239.24C24.5003 239.56 24.6703 239.98 24.6703 240.5C24.6703 241.02 24.5003 241.44 24.1603 241.76C23.8203 242.08 23.3903 242.24 22.8703 242.24Z" fill="white"/>
</svg>
