<svg width="301" height="47" viewBox="0 0 301 47" fill="none" xmlns="http://www.w3.org/2000/svg">
<g opacity="0.8">
<path fill-rule="evenodd" clip-rule="evenodd" d="M46.7049 23.3181C46.7049 10.4407 36.2488 0 23.3525 0C10.4561 0 0 10.4407 0 23.3181C0 36.1955 10.4561 46.6362 23.3525 46.6362C36.2488 46.6362 46.7049 36.1955 46.7049 23.3181ZM33.1605 36.0149V10.6875H13.1358V16.0196H27.336V30.6828H13.1358V36.0149H33.1605ZM22.6013 26.0172V20.6852H13.1358V26.0172H22.6013Z" fill="white"/>
</g>
<g opacity="0.8">
<path d="M71.3958 35.5198V32.4327H77.6741C79.1919 32.4327 80.5373 32.1926 81.7101 31.7124C82.906 31.2093 83.9179 30.5233 84.7458 29.6544C85.5967 28.7854 86.2406 27.7678 86.6776 26.6016C87.1145 25.4354 87.333 24.1777 87.333 22.8285C87.333 21.4107 87.1145 20.1302 86.6776 18.9868C86.2406 17.8206 85.5967 16.8144 84.7458 15.9683C83.9179 15.0994 82.906 14.4362 81.7101 13.9789C80.5373 13.5215 79.1919 13.2929 77.6741 13.2929H71.3958V10.2058H77.3291C79.6059 10.2058 81.5836 10.5602 83.2624 11.2691C84.9413 11.9551 86.3326 12.8927 87.4365 14.0818C88.5634 15.248 89.4028 16.5629 89.9547 18.0264C90.5066 19.467 90.7826 20.942 90.7826 22.4512V23.2058C90.7826 24.6693 90.5066 26.1328 89.9547 27.5963C89.4028 29.0598 88.5634 30.3861 87.4365 31.5752C86.3326 32.7643 84.9413 33.7247 83.2624 34.4565C81.5836 35.1653 79.6059 35.5198 77.3291 35.5198H71.3958ZM68.7051 35.5198V10.2058H72.0857V35.5198H68.7051Z" fill="white"/>
<path d="M103.34 36C101.73 36 100.339 35.7256 99.1657 35.1768C97.9928 34.628 97.0384 33.9077 96.3025 33.0158C95.5666 32.1011 95.0147 31.0836 94.6467 29.9631C94.3018 28.8426 94.1293 27.6992 94.1293 26.533V25.9156C94.1293 24.7265 94.3018 23.5717 94.6467 22.4512C95.0147 21.3307 95.5666 20.3245 96.3025 19.4327C97.0384 18.518 97.9698 17.7977 99.0967 17.2718C100.247 16.723 101.592 16.4485 103.133 16.4485C105.134 16.4485 106.778 16.883 108.066 17.752C109.377 18.5981 110.342 19.6957 110.963 21.0449C111.607 22.394 111.929 23.8347 111.929 25.3668V26.8417H95.5781V24.372H109.515L108.756 25.7098C108.756 24.4063 108.549 23.2858 108.135 22.3483C107.721 21.3879 107.1 20.6447 106.272 20.1187C105.444 19.5928 104.398 19.3298 103.133 19.3298C101.822 19.3298 100.73 19.6271 99.8556 20.2216C99.0047 20.8162 98.3608 21.628 97.9238 22.657C97.5099 23.686 97.3029 24.8751 97.3029 26.2243C97.3029 27.5277 97.5099 28.7054 97.9238 29.7573C98.3608 30.7863 99.0277 31.6095 99.9246 32.2269C100.822 32.8215 101.96 33.1187 103.34 33.1187C104.789 33.1187 105.961 32.7986 106.858 32.1583C107.778 31.518 108.33 30.7748 108.514 29.9288H111.619C111.366 31.1865 110.86 32.2726 110.101 33.1873C109.342 34.102 108.388 34.7995 107.238 35.2797C106.088 35.7599 104.789 36 103.34 36Z" fill="white"/>
<path d="M124.531 36C122.944 36 121.564 35.7256 120.391 35.1768C119.241 34.628 118.287 33.8962 117.528 32.9815C116.769 32.044 116.194 31.015 115.803 29.8945C115.435 28.774 115.251 27.6535 115.251 26.533V25.9156C115.251 24.7493 115.435 23.606 115.803 22.4855C116.194 21.365 116.769 20.3588 117.528 19.467C118.31 18.5523 119.276 17.8206 120.426 17.2718C121.576 16.723 122.921 16.4485 124.462 16.4485C126.003 16.4485 127.383 16.7344 128.601 17.3061C129.843 17.8777 130.832 18.6895 131.568 19.7414C132.327 20.7704 132.752 21.9938 132.844 23.4116H129.671C129.51 22.2682 128.981 21.3193 128.084 20.5646C127.187 19.7872 125.98 19.3984 124.462 19.3984C123.151 19.3984 122.059 19.6957 121.185 20.2902C120.311 20.8848 119.655 21.6966 119.218 22.7256C118.782 23.7546 118.563 24.9208 118.563 26.2243C118.563 27.482 118.782 28.6368 119.218 29.6887C119.655 30.7177 120.311 31.5409 121.185 32.1583C122.082 32.7529 123.197 33.0501 124.531 33.0501C125.566 33.0501 126.463 32.8672 127.222 32.5013C127.98 32.1354 128.59 31.6438 129.05 31.0264C129.51 30.409 129.786 29.7115 129.878 28.934H133.051C132.982 30.3747 132.557 31.6209 131.775 32.6728C131.016 33.7247 130.004 34.5479 128.739 35.1425C127.498 35.7142 126.095 36 124.531 36Z" fill="white"/>
<path d="M138.448 35.3826V17.066H141.76V35.3826H138.448ZM135.62 19.6728V17.066H141.76V19.6728H135.62ZM139.38 14.1161C138.644 14.1161 138.092 13.9217 137.724 13.533C137.379 13.1442 137.206 12.6526 137.206 12.058C137.206 11.4635 137.379 10.9719 137.724 10.5831C138.092 10.1944 138.644 10 139.38 10C140.116 10 140.656 10.1944 141.001 10.5831C141.369 10.9719 141.553 11.4635 141.553 12.058C141.553 12.6526 141.369 13.1442 141.001 13.533C140.656 13.9217 140.116 14.1161 139.38 14.1161Z" fill="white"/>
<path d="M148.163 35.3826V17.066H150.785V24.9208H150.371C150.371 23.1372 150.601 21.628 151.061 20.3931C151.544 19.1354 152.256 18.175 153.199 17.5119C154.142 16.8487 155.338 16.5171 156.787 16.5171H156.925C158.374 16.5171 159.57 16.8487 160.513 17.5119C161.478 18.175 162.191 19.1354 162.651 20.3931C163.111 21.628 163.341 23.1372 163.341 24.9208H162.375C162.375 23.1372 162.617 21.628 163.1 20.3931C163.583 19.1354 164.296 18.175 165.238 17.5119C166.204 16.8487 167.412 16.5171 168.861 16.5171H168.999C170.447 16.5171 171.655 16.8487 172.621 17.5119C173.587 18.175 174.299 19.1354 174.759 20.3931C175.242 21.628 175.484 23.1372 175.484 24.9208V35.3826H172.172V24.2005C172.172 22.7142 171.804 21.5708 171.068 20.7704C170.332 19.9472 169.309 19.5356 167.998 19.5356C166.641 19.5356 165.549 19.9701 164.721 20.839C163.893 21.6851 163.479 22.8742 163.479 24.4063V35.3826H160.168V24.2005C160.168 22.7142 159.8 21.5708 159.064 20.7704C158.328 19.9472 157.304 19.5356 155.994 19.5356C154.637 19.5356 153.544 19.9701 152.716 20.839C151.888 21.6851 151.475 22.8742 151.475 24.4063V35.3826H148.163Z" fill="white"/>
<path d="M192.69 35.3826V29.8945H192.138V23.5488C192.138 22.2911 191.804 21.3421 191.137 20.7018C190.493 20.0616 189.539 19.7414 188.274 19.7414C187.561 19.7414 186.825 19.7529 186.066 19.7757C185.307 19.7986 184.583 19.8215 183.893 19.8443C183.203 19.8672 182.605 19.9015 182.099 19.9472V17.066C182.605 17.0202 183.134 16.9859 183.686 16.9631C184.261 16.9173 184.847 16.8945 185.445 16.8945C186.043 16.8716 186.618 16.8602 187.17 16.8602C189.056 16.8602 190.597 17.0888 191.793 17.5462C192.989 17.9806 193.874 18.701 194.449 19.7071C195.024 20.7133 195.311 22.0739 195.311 23.7889V35.3826H192.69ZM186.653 35.8628C185.273 35.8628 184.077 35.6341 183.065 35.1768C182.076 34.6966 181.306 34.0106 180.754 33.1187C180.225 32.2269 179.961 31.1522 179.961 29.8945C179.961 28.591 180.248 27.5048 180.823 26.6359C181.421 25.7669 182.283 25.1152 183.41 24.6807C184.537 24.2234 185.894 23.9947 187.481 23.9947H192.483V26.4644H187.343C186.009 26.4644 184.985 26.7845 184.273 27.4248C183.56 28.0651 183.203 28.8883 183.203 29.8945C183.203 30.9006 183.56 31.7124 184.273 32.3298C184.985 32.9472 186.009 33.2559 187.343 33.2559C188.125 33.2559 188.872 33.1187 189.585 32.8443C190.298 32.5471 190.884 32.0668 191.344 31.4037C191.827 30.7177 192.092 29.7801 192.138 28.591L193.035 29.8945C192.92 31.1979 192.598 32.2955 192.069 33.1873C191.563 34.0563 190.85 34.7194 189.93 35.1768C189.033 35.6341 187.941 35.8628 186.653 35.8628Z" fill="white"/>
<path d="M201.596 35.3826V10.343H204.908V35.3826H201.596ZM199.044 12.9499V10.343H204.908V12.9499H199.044Z" fill="white"/>
<path d="M219.159 36C217.573 36 216.193 35.7256 215.02 35.1768C213.87 34.628 212.916 33.8962 212.157 32.9815C211.398 32.044 210.823 31.015 210.432 29.8945C210.064 28.774 209.88 27.6535 209.88 26.533V25.9156C209.88 24.7493 210.064 23.606 210.432 22.4855C210.823 21.365 211.398 20.3588 212.157 19.467C212.939 18.5523 213.905 17.8206 215.054 17.2718C216.204 16.723 217.55 16.4485 219.09 16.4485C220.631 16.4485 222.011 16.7344 223.23 17.3061C224.472 17.8777 225.461 18.6895 226.197 19.7414C226.956 20.7704 227.381 21.9938 227.473 23.4116H224.299C224.138 22.2682 223.609 21.3193 222.713 20.5646C221.816 19.7872 220.608 19.3984 219.09 19.3984C217.78 19.3984 216.687 19.6957 215.813 20.2902C214.939 20.8848 214.284 21.6966 213.847 22.7256C213.41 23.7546 213.192 24.9208 213.192 26.2243C213.192 27.482 213.41 28.6368 213.847 29.6887C214.284 30.7177 214.939 31.5409 215.813 32.1583C216.71 32.7529 217.826 33.0501 219.159 33.0501C220.194 33.0501 221.091 32.8672 221.85 32.5013C222.609 32.1354 223.219 31.6438 223.678 31.0264C224.138 30.409 224.414 29.7115 224.506 28.934H227.68C227.611 30.3747 227.186 31.6209 226.404 32.6728C225.645 33.7247 224.633 34.5479 223.368 35.1425C222.126 35.7142 220.723 36 219.159 36Z" fill="white"/>
<path d="M232.18 35.3826V10.343H235.491V25.2982H234.664C234.664 23.4916 234.894 21.9367 235.354 20.6332C235.836 19.3069 236.572 18.2894 237.561 17.5805C238.55 16.8716 239.815 16.5171 241.356 16.5171H241.494C243.702 16.5171 245.369 17.2489 246.496 18.7124C247.623 20.153 248.186 22.2225 248.186 24.9208V35.3826H244.874V24.2348C244.874 22.7485 244.449 21.5937 243.598 20.7704C242.77 19.9472 241.689 19.5356 240.355 19.5356C238.884 19.5356 237.699 20.0273 236.802 21.0106C235.928 21.971 235.491 23.2401 235.491 24.8179V35.3826H232.18Z" fill="white"/>
<path d="M265.388 35.3826V29.8945H264.836V23.5488C264.836 22.2911 264.502 21.3421 263.835 20.7018C263.191 20.0616 262.237 19.7414 260.972 19.7414C260.259 19.7414 259.523 19.7529 258.764 19.7757C258.005 19.7986 257.281 19.8215 256.591 19.8443C255.901 19.8672 255.303 19.9015 254.797 19.9472V17.066C255.303 17.0202 255.832 16.9859 256.384 16.9631C256.959 16.9173 257.545 16.8945 258.143 16.8945C258.741 16.8716 259.316 16.8602 259.868 16.8602C261.754 16.8602 263.295 17.0888 264.491 17.5462C265.686 17.9806 266.572 18.701 267.147 19.7071C267.722 20.7133 268.009 22.0739 268.009 23.7889V35.3826H265.388ZM259.351 35.8628C257.971 35.8628 256.775 35.6341 255.763 35.1768C254.774 34.6966 254.004 34.0106 253.452 33.1187C252.923 32.2269 252.658 31.1522 252.658 29.8945C252.658 28.591 252.946 27.5048 253.521 26.6359C254.119 25.7669 254.981 25.1152 256.108 24.6807C257.235 24.2234 258.592 23.9947 260.179 23.9947H265.181V26.4644H260.041C258.707 26.4644 257.683 26.7845 256.97 27.4248C256.258 28.0651 255.901 28.8883 255.901 29.8945C255.901 30.9006 256.258 31.7124 256.97 32.3298C257.683 32.9472 258.707 33.2559 260.041 33.2559C260.823 33.2559 261.57 33.1187 262.283 32.8443C262.996 32.5471 263.582 32.0668 264.042 31.4037C264.525 30.7177 264.79 29.7801 264.836 28.591L265.732 29.8945C265.617 31.1979 265.296 32.2955 264.767 33.1873C264.261 34.0563 263.548 34.7194 262.628 35.1768C261.731 35.6341 260.639 35.8628 259.351 35.8628Z" fill="white"/>
<path d="M274.984 35.3826V17.066H278.296V35.3826H274.984ZM272.155 19.6728V17.066H278.296V19.6728H272.155ZM275.916 14.1161C275.18 14.1161 274.628 13.9217 274.26 13.533C273.915 13.1442 273.742 12.6526 273.742 12.058C273.742 11.4635 273.915 10.9719 274.26 10.5831C274.628 10.1944 275.18 10 275.916 10C276.651 10 277.192 10.1944 277.537 10.5831C277.905 10.9719 278.089 11.4635 278.089 12.058C278.089 12.6526 277.905 13.1442 277.537 13.533C277.192 13.9217 276.651 14.1161 275.916 14.1161Z" fill="white"/>
<path d="M284.699 35.3826V17.066H287.321V24.9208H286.907C286.907 23.1143 287.148 21.5937 287.631 20.3588C288.137 19.1011 288.896 18.1522 289.908 17.5119C290.92 16.8487 292.196 16.5171 293.737 16.5171H293.875C296.198 16.5171 297.911 17.2375 299.015 18.6781C300.142 20.1187 300.705 22.1996 300.705 24.9208V35.3826H297.393V24.2348C297.393 22.8171 296.991 21.6851 296.186 20.839C295.381 19.9701 294.277 19.5356 292.874 19.5356C291.426 19.5356 290.253 19.9815 289.356 20.8734C288.459 21.7652 288.01 22.9543 288.01 24.4406V35.3826H284.699Z" fill="white"/>
</g>
</svg>
