<svg width="34" height="27" viewBox="0 0 34 27" fill="none" xmlns="http://www.w3.org/2000/svg">
<g clip-path="url(#clip0_202_5)">
<path d="M34 3.28781C32.749 3.82746 31.4046 4.19218 29.9936 4.35621C31.4339 3.51644 32.5398 2.18675 33.0607 0.602417C31.7129 1.37989 30.2201 1.94457 28.6312 2.24893C27.3587 0.930243 25.5458 0.106201 23.5396 0.106201C19.6871 0.106201 16.5639 3.1441 16.5639 6.89112C16.5639 7.4229 16.6257 7.94077 16.7446 8.43735C10.9472 8.1544 5.80732 5.45316 2.3669 1.34819C1.76647 2.3503 1.42248 3.51584 1.42248 4.75928C1.42248 7.11322 2.65406 9.19002 4.52575 10.4067C3.38222 10.3715 2.30671 10.0663 1.36614 9.55813C1.36565 9.58644 1.36565 9.61486 1.36565 9.64341C1.36565 12.9309 3.77011 15.6732 6.96118 16.2965C6.37579 16.4516 5.75957 16.5344 5.12332 16.5344C4.67387 16.5344 4.23685 16.492 3.81102 16.4127C4.69861 19.1084 7.2747 21.07 10.3271 21.1248C7.9398 22.9446 4.93205 24.0293 1.664 24.0293C1.101 24.0293 0.545711 23.9973 0 23.9346C3.08697 25.8597 6.75361 26.9829 10.6929 26.9829C23.5233 26.9829 30.5394 16.644 30.5394 7.67791C30.5394 7.38371 30.5327 7.09108 30.5193 6.80015C31.8821 5.84353 33.0648 4.64847 34 3.28781Z" fill="#D9D9D9"/>
</g>
<defs>
<clipPath id="clip0_202_5">
<rect width="34" height="27" fill="white"/>
</clipPath>
</defs>
</svg>
